<svg width="33" height="25" viewBox="0 0 33 25" fill="none" xmlns="http://www.w3.org/2000/svg">
<path d="M32.3195 21.9153C32.5468 20.7926 31.7885 19.6738 30.7177 19.4109V13.9301C30.8759 13.9884 31.6382 14.4427 31.8115 14.4114C32.365 14.434 32.5675 13.6063 32.0575 13.3778C32.0576 13.3778 24.4013 9.54964 24.4013 9.54964C24.22 9.4479 24.0042 9.48292 23.8326 9.58793L23.0615 9.97622V4.63224L23.9106 5.05682C24.1752 5.1902 24.5086 5.08516 24.6444 4.81222C24.7795 4.54198 24.6701 4.21354 24.3998 4.07842L16.7835 0.270255C16.5856 0.177362 16.4124 0.177362 16.2616 0.248593C16.2145 0.270255 8.59814 4.07842 8.59814 4.07842C8.3279 4.21354 8.21842 4.54198 8.35354 4.81222C8.48919 5.08245 8.8171 5.19086 9.08733 5.05682L9.93648 4.63224V9.97622L9.16541 9.58793C8.9929 9.48342 8.77878 9.4474 8.59663 9.54964L0.940383 13.3778C0.310897 13.7008 0.777863 14.6678 1.43262 14.3512C1.43259 14.3512 2.28024 13.9301 2.28024 13.9301V19.4109C1.20955 19.6737 0.451056 20.7928 0.678501 21.9153C-0.480103 22.8406 0.226186 24.8336 1.73343 24.802C1.73337 24.802 31.2646 24.802 31.2646 24.802C32.7611 24.8348 33.4873 22.841 32.3195 21.9153ZM24.0592 10.6969L24.1552 10.6598L24.2513 10.6969L29.624 13.3832V19.4134C29.2718 19.5066 28.9424 19.6801 28.6728 19.9362C27.9551 20.1178 27.4365 20.7661 27.4365 21.5207H26.8896V18.2395C26.8896 17.0331 25.9085 16.052 24.7021 16.052H23.6084C22.4019 16.052 21.4209 17.0331 21.4209 18.2395V21.5207H18.6865V13.3808C20.0348 12.7034 22.6917 11.3839 24.0592 10.6969ZM13.7646 8.94262C13.7646 7.73402 14.7435 6.75512 15.9521 6.75512H17.0459C18.2545 6.75512 19.2334 7.73402 19.2334 8.94262V11.8903C18.7858 12.1096 16.9781 13.0174 16.499 13.2575C16.0092 13.012 14.222 12.1145 13.7646 11.8903V8.94262ZM17.5927 13.9301V21.5207H15.4052V13.9301C15.6148 14.0118 16.2764 14.4218 16.499 14.4114C16.7202 14.4198 17.3868 14.0113 17.5927 13.9301ZM3.37398 13.3832L8.7467 10.6969L8.84273 10.6598C10.2741 11.348 12.9068 12.6855 14.3115 13.3808V21.5207H11.5771V18.2395C11.5771 17.0331 10.596 16.052 9.38961 16.052H8.29586C7.08942 16.052 6.10836 17.0331 6.10836 18.2395V21.5207H5.56148C5.56148 20.7661 5.04291 20.1178 4.32514 19.9362C4.05554 19.6801 3.72616 19.5066 3.37398 19.4134V13.3832ZM31.2646 23.7082H1.73335C1.02599 23.6989 1.00547 22.6279 1.73338 22.6145C1.73335 22.6145 31.2646 22.6145 31.2646 22.6145C31.972 22.6238 31.9925 23.6948 31.2646 23.7082Z" fill="black" fill-opacity="0.38"/>
</svg>
