<svg width="40" height="40" viewBox="0 0 40 40" fill="none" xmlns="http://www.w3.org/2000/svg">
<path d="M20 40C17.2333 40 14.6333 39.475 12.2 38.425C9.76667 37.375 7.65 35.95 5.85 34.15C4.05 32.35 2.625 30.2333 1.575 27.8C0.525 25.3667 0 22.7667 0 20C0 17.2333 0.525 14.6333 1.575 12.2C2.625 9.76667 4.05 7.65 5.85 5.85C7.65 4.05 9.76667 2.625 12.2 1.575C14.6333 0.525 17.2333 0 20 0C22.7667 0 25.3667 0.525 27.8 1.575C30.2333 2.625 32.35 4.05 34.15 5.85C35.95 7.65 37.375 9.76667 38.425 12.2C39.475 14.6333 40 17.2333 40 20V22.65C40 24.5167 39.3417 26.0917 38.025 27.375C36.7083 28.6583 35.1 29.3 33.2 29.3C32 29.3 30.8667 29.0083 29.8 28.425C28.7333 27.8417 27.9167 27.0167 27.35 25.95C26.4833 27.0833 25.4 27.925 24.1 28.475C22.8 29.025 21.4333 29.3 20 29.3C17.4 29.3 15.1917 28.4 13.375 26.6C11.5583 24.8 10.65 22.6 10.65 20C10.65 17.4 11.5583 15.1833 13.375 13.35C15.1917 11.5167 17.4 10.6 20 10.6C22.6 10.6 24.8083 11.5167 26.625 13.35C28.4417 15.1833 29.35 17.4 29.35 20V22.65C29.35 23.6833 29.725 24.55 30.475 25.25C31.225 25.95 32.1333 26.3 33.2 26.3C34.2333 26.3 35.125 25.95 35.875 25.25C36.625 24.55 37 23.6833 37 22.65V20C37 15.2667 35.35 11.25 32.05 7.95C28.75 4.65 24.7333 3 20 3C15.2667 3 11.25 4.65 7.95 7.95C4.65 11.25 3 15.2667 3 20C3 24.7333 4.65 28.75 7.95 32.05C11.25 35.35 15.2667 37 20 37H30.7V40H20ZM20 26.3C21.7667 26.3 23.2667 25.6917 24.5 24.475C25.7333 23.2583 26.35 21.7667 26.35 20C26.35 18.2 25.7333 16.6833 24.5 15.45C23.2667 14.2167 21.7667 13.6 20 13.6C18.2333 13.6 16.7333 14.2167 15.5 15.45C14.2667 16.6833 13.65 18.2 13.65 20C13.65 21.7667 14.2667 23.2583 15.5 24.475C16.7333 25.6917 18.2333 26.3 20 26.3Z" fill="black" fill-opacity="0.4"/>
</svg>
