<svg width="27" height="31" viewBox="0 0 27 31" fill="none" xmlns="http://www.w3.org/2000/svg">
<path d="M12.0417 15.3542V22.7917C12.0417 23.1784 12.1953 23.5494 12.4688 23.8229C12.7423 24.0964 13.1132 24.25 13.5 24.25C13.8868 24.25 14.2577 24.0964 14.5312 23.8229C14.8047 23.5494 14.9583 23.1784 14.9583 22.7917V15.3542C16.7288 14.9928 18.302 13.9868 19.373 12.5314C20.444 11.076 20.9364 9.27478 20.7547 7.47694C20.5731 5.6791 19.7304 4.01274 18.39 2.80092C17.0496 1.5891 15.307 0.918152 13.5 0.918152C11.693 0.918152 9.95039 1.5891 8.60999 2.80092C7.26958 4.01274 6.42688 5.6791 6.24526 7.47694C6.06364 9.27478 6.55604 11.076 7.627 12.5314C8.69797 13.9868 10.2712 14.9928 12.0417 15.3542ZM13.5 3.83333C14.3653 3.83333 15.2112 4.08992 15.9306 4.57065C16.6501 5.05138 17.2108 5.73466 17.542 6.53409C17.8731 7.33352 17.9597 8.21318 17.7909 9.06185C17.6221 9.91052 17.2054 10.6901 16.5936 11.3019C15.9817 11.9138 15.2022 12.3305 14.3535 12.4993C13.5049 12.6681 12.6252 12.5814 11.8258 12.2503C11.0263 11.9192 10.3431 11.3584 9.86232 10.6389C9.38159 9.91948 9.125 9.07362 9.125 8.20833C9.125 7.04801 9.58594 5.93521 10.4064 5.11474C11.2269 4.29427 12.3397 3.83333 13.5 3.83333ZM19.6396 19.0292C19.4481 18.9889 19.2505 18.9868 19.0582 19.023C18.8659 19.0591 18.6825 19.1328 18.5187 19.2397C18.3548 19.3467 18.2137 19.4849 18.1032 19.6465C17.9928 19.808 17.9152 19.9897 17.875 20.1812C17.8348 20.3728 17.8327 20.5703 17.8688 20.7626C17.9049 20.955 17.9786 21.1383 18.0856 21.3021C18.1926 21.466 18.3308 21.6072 18.4923 21.7176C18.6539 21.8281 18.8356 21.9056 19.0271 21.9458C22.3375 22.6021 23.7083 23.7833 23.7083 24.25C23.7083 25.0958 20.1354 27.1667 13.5 27.1667C6.86458 27.1667 3.29167 25.0958 3.29167 24.25C3.29167 23.7833 4.6625 22.6021 7.97292 21.8875C8.16443 21.8473 8.34614 21.7697 8.50769 21.6593C8.66923 21.5488 8.80744 21.4077 8.91442 21.2438C9.0214 21.08 9.09506 20.8966 9.13119 20.7043C9.16732 20.512 9.16522 20.3144 9.125 20.1229C9.08478 19.9314 9.00724 19.7497 8.8968 19.5881C8.78635 19.4266 8.64517 19.2884 8.48131 19.1814C8.31746 19.0744 8.13413 19.0008 7.94181 18.9646C7.74949 18.9285 7.55193 18.9306 7.36042 18.9708C2.92708 19.9917 0.375 21.9021 0.375 24.25C0.375 28.0854 6.98125 30.0833 13.5 30.0833C20.0187 30.0833 26.625 28.0854 26.625 24.25C26.625 21.9021 24.0729 19.9917 19.6396 19.0292Z" fill="black" fill-opacity="0.35"/>
</svg>
