<svg width="35" height="35" viewBox="0 0 35 35" fill="none" xmlns="http://www.w3.org/2000/svg">
<path d="M28.1023 6.825C27.7694 6.58512 27.3846 6.4271 26.9792 6.36375C26.5738 6.30041 26.1592 6.33352 25.7689 6.46042C24.7396 6.74987 23.6735 6.88744 22.6044 6.86875C21.0244 6.78299 19.4752 6.39694 18.0398 5.73125C16.2665 4.91113 14.3483 4.45019 12.396 4.375C8.18144 4.375 6.56269 5.83333 6.27102 6.0375C6.13147 6.17428 6.02083 6.33771 5.94568 6.51809C5.87052 6.69846 5.83238 6.8921 5.83352 7.0875V29.1667C5.83352 29.5534 5.98717 29.9244 6.26066 30.1979C6.53415 30.4714 6.90508 30.625 7.29185 30.625C7.67863 30.625 8.04956 30.4714 8.32305 30.1979C8.59654 29.9244 8.75019 29.5534 8.75019 29.1667V22.8958C9.91223 22.4509 11.1527 22.2475 12.396 22.2979C13.976 22.3837 15.5252 22.7697 16.9606 23.4354C18.7339 24.2555 20.652 24.7165 22.6044 24.7917C24.3624 24.8581 26.1113 24.5083 27.7085 23.7708C28.139 23.5686 28.504 23.2494 28.7619 22.8498C29.0197 22.4501 29.1601 21.986 29.1669 21.5104V8.91042C29.1663 8.5035 29.0696 8.10248 28.8846 7.74006C28.6996 7.37764 28.4315 7.06409 28.1023 6.825ZM26.2502 21.2771C25.0877 21.7204 23.8475 21.9238 22.6044 21.875C21.0224 21.7912 19.472 21.3999 18.0398 20.7229C16.2631 19.9146 14.3464 19.459 12.396 19.3813C11.1674 19.3601 9.94136 19.5023 8.75019 19.8042V7.90417C9.90951 7.4482 11.1513 7.23957 12.396 7.29167C13.9779 7.37549 15.5284 7.76682 16.9606 8.44375C18.7373 9.25203 20.654 9.70768 22.6044 9.78542C23.8337 9.80357 25.06 9.65642 26.2502 9.34792V21.2771Z" fill="black" fill-opacity="0.38"/>
</svg>
