<svg width="30" height="30" viewBox="0 0 30 30" fill="none" xmlns="http://www.w3.org/2000/svg">
<rect width="30" height="30" rx="10" fill="#50C0FF"/>
<path d="M18 19H12C11.7348 19 11.4804 19.1054 11.2929 19.2929C11.1054 19.4804 11 19.7348 11 20C11 20.2652 11.1054 20.5196 11.2929 20.7071C11.4804 20.8946 11.7348 21 12 21H18C18.2652 21 18.5196 20.8946 18.7071 20.7071C18.8946 20.5196 19 20.2652 19 20C19 19.7348 18.8946 19.4804 18.7071 19.2929C18.5196 19.1054 18.2652 19 18 19ZM12 13H13C13.2652 13 13.5196 12.8946 13.7071 12.7071C13.8946 12.5196 14 12.2652 14 12C14 11.7348 13.8946 11.4804 13.7071 11.2929C13.5196 11.1054 13.2652 11 13 11H12C11.7348 11 11.4804 11.1054 11.2929 11.2929C11.1054 11.4804 11 11.7348 11 12C11 12.2652 11.1054 12.5196 11.2929 12.7071C11.4804 12.8946 11.7348 13 12 13ZM18 15H12C11.7348 15 11.4804 15.1054 11.2929 15.2929C11.1054 15.4804 11 15.7348 11 16C11 16.2652 11.1054 16.5196 11.2929 16.7071C11.4804 16.8946 11.7348 17 12 17H18C18.2652 17 18.5196 16.8946 18.7071 16.7071C18.8946 16.5196 19 16.2652 19 16C19 15.7348 18.8946 15.4804 18.7071 15.2929C18.5196 15.1054 18.2652 15 18 15ZM22.71 18.29C22.6149 18.199 22.5028 18.1276 22.38 18.08C22.2606 18.0259 22.1311 17.9979 22 17.9979C21.8689 17.9979 21.7394 18.0259 21.62 18.08C21.4972 18.1276 21.3851 18.199 21.29 18.29C21.2017 18.3872 21.1306 18.4988 21.08 18.62C21.0034 18.8021 20.9825 19.0028 21.0199 19.1968C21.0572 19.3908 21.1512 19.5694 21.29 19.71C21.3834 19.8027 21.4943 19.876 21.6161 19.9258C21.7379 19.9755 21.8684 20.0008 22 20C22.1307 19.9984 22.2598 19.9712 22.38 19.92C22.5012 19.8694 22.6128 19.7983 22.71 19.71C22.8488 19.5694 22.9428 19.3908 22.9801 19.1968C23.0175 19.0028 22.9966 18.8021 22.92 18.62C22.8694 18.4988 22.7983 18.3872 22.71 18.29ZM23 11.94C22.9896 11.8481 22.9695 11.7576 22.94 11.67V11.58C22.8919 11.4772 22.8278 11.3827 22.75 11.3L16.75 5.3C16.6673 5.22222 16.5728 5.15808 16.47 5.11C16.4402 5.10576 16.4099 5.10576 16.38 5.11C16.2784 5.05174 16.1662 5.01434 16.05 5H10C9.20435 5 8.44129 5.31607 7.87868 5.87868C7.31607 6.44129 7 7.20435 7 8V22C7 22.7956 7.31607 23.5587 7.87868 24.1213C8.44129 24.6839 9.20435 25 10 25H18C18.2652 25 18.5196 24.8946 18.7071 24.7071C18.8946 24.5196 19 24.2652 19 24C19 23.7348 18.8946 23.4804 18.7071 23.2929C18.5196 23.1054 18.2652 23 18 23H10C9.73478 23 9.48043 22.8946 9.29289 22.7071C9.10536 22.5196 9 22.2652 9 22V8C9 7.73478 9.10536 7.48043 9.29289 7.29289C9.48043 7.10536 9.73478 7 10 7H15V10C15 10.7956 15.3161 11.5587 15.8787 12.1213C16.4413 12.6839 17.2044 13 18 13H21V15C21 15.2652 21.1054 15.5196 21.2929 15.7071C21.4804 15.8946 21.7348 16 22 16C22.2652 16 22.5196 15.8946 22.7071 15.7071C22.8946 15.5196 23 15.2652 23 15V12C23 12 23 12 23 11.94ZM18 11C17.7348 11 17.4804 10.8946 17.2929 10.7071C17.1054 10.5196 17 10.2652 17 10V8.41L19.59 11H18ZM22 21C21.7348 21 21.4804 21.1054 21.2929 21.2929C21.1054 21.4804 21 21.7348 21 22V24C21 24.2652 21.1054 24.5196 21.2929 24.7071C21.4804 24.8946 21.7348 25 22 25C22.2652 25 22.5196 24.8946 22.7071 24.7071C22.8946 24.5196 23 24.2652 23 24V22C23 21.7348 22.8946 21.4804 22.7071 21.2929C22.5196 21.1054 22.2652 21 22 21Z" fill="black" fill-opacity="0.38"/>
</svg>
