<svg width="31" height="31" viewBox="0 0 31 31" fill="none" xmlns="http://www.w3.org/2000/svg">
<path d="M18.4165 9.66667H19.8748C20.2616 9.66667 20.6325 9.51302 20.906 9.23953C21.1795 8.96604 21.3332 8.59511 21.3332 8.20833C21.3332 7.82156 21.1795 7.45063 20.906 7.17714C20.6325 6.90365 20.2616 6.75 19.8748 6.75H18.4165C18.0297 6.75 17.6588 6.90365 17.3853 7.17714C17.1118 7.45063 16.9582 7.82156 16.9582 8.20833C16.9582 8.59511 17.1118 8.96604 17.3853 9.23953C17.6588 9.51302 18.0297 9.66667 18.4165 9.66667ZM18.4165 15.5H19.8748C20.2616 15.5 20.6325 15.3464 20.906 15.0729C21.1795 14.7994 21.3332 14.4284 21.3332 14.0417C21.3332 13.6549 21.1795 13.284 20.906 13.0105C20.6325 12.737 20.2616 12.5833 19.8748 12.5833H18.4165C18.0297 12.5833 17.6588 12.737 17.3853 13.0105C17.1118 13.284 16.9582 13.6549 16.9582 14.0417C16.9582 14.4284 17.1118 14.7994 17.3853 15.0729C17.6588 15.3464 18.0297 15.5 18.4165 15.5ZM11.1248 9.66667H12.5832C12.9699 9.66667 13.3409 9.51302 13.6144 9.23953C13.8879 8.96604 14.0415 8.59511 14.0415 8.20833C14.0415 7.82156 13.8879 7.45063 13.6144 7.17714C13.3409 6.90365 12.9699 6.75 12.5832 6.75H11.1248C10.7381 6.75 10.3671 6.90365 10.0936 7.17714C9.82015 7.45063 9.6665 7.82156 9.6665 8.20833C9.6665 8.59511 9.82015 8.96604 10.0936 9.23953C10.3671 9.51302 10.7381 9.66667 11.1248 9.66667ZM11.1248 15.5H12.5832C12.9699 15.5 13.3409 15.3464 13.6144 15.0729C13.8879 14.7994 14.0415 14.4284 14.0415 14.0417C14.0415 13.6549 13.8879 13.284 13.6144 13.0105C13.3409 12.737 12.9699 12.5833 12.5832 12.5833H11.1248C10.7381 12.5833 10.3671 12.737 10.0936 13.0105C9.82015 13.284 9.6665 13.6549 9.6665 14.0417C9.6665 14.4284 9.82015 14.7994 10.0936 15.0729C10.3671 15.3464 10.7381 15.5 11.1248 15.5ZM28.6248 27.1667H27.1665V2.375C27.1665 1.98823 27.0129 1.61729 26.7394 1.3438C26.4659 1.07031 26.0949 0.916668 25.7082 0.916668H5.2915C4.90473 0.916668 4.5338 1.07031 4.26031 1.3438C3.98682 1.61729 3.83317 1.98823 3.83317 2.375V27.1667H2.37484C1.98806 27.1667 1.61713 27.3203 1.34364 27.5938C1.07015 27.8673 0.916504 28.2382 0.916504 28.625C0.916504 29.0118 1.07015 29.3827 1.34364 29.6562C1.61713 29.9297 1.98806 30.0833 2.37484 30.0833H28.6248C29.0116 30.0833 29.3825 29.9297 29.656 29.6562C29.9295 29.3827 30.0832 29.0118 30.0832 28.625C30.0832 28.2382 29.9295 27.8673 29.656 27.5938C29.3825 27.3203 29.0116 27.1667 28.6248 27.1667ZM16.9582 27.1667H14.0415V21.3333H16.9582V27.1667ZM24.2498 27.1667H19.8748V19.875C19.8748 19.4882 19.7212 19.1173 19.4477 18.8438C19.1742 18.5703 18.8033 18.4167 18.4165 18.4167H12.5832C12.1964 18.4167 11.8255 18.5703 11.552 18.8438C11.2785 19.1173 11.1248 19.4882 11.1248 19.875V27.1667H6.74984V3.83333H24.2498V27.1667Z" fill="black" fill-opacity="0.38"/>
</svg>
