<svg width="35" height="35" viewBox="0 0 35 35" fill="none" xmlns="http://www.w3.org/2000/svg">
<path d="M11.6668 24.0626C11.3784 24.0626 11.0964 24.1481 10.8566 24.3084C10.6168 24.4686 10.4299 24.6964 10.3195 24.9628C10.2091 25.2293 10.1802 25.5225 10.2365 25.8054C10.2928 26.0883 10.4317 26.3482 10.6356 26.5521C10.8396 26.7561 11.0994 26.895 11.3823 26.9512C11.6652 27.0075 11.9584 26.9786 12.2249 26.8682C12.4914 26.7579 12.7191 26.5709 12.8794 26.3311C13.0396 26.0913 13.1252 25.8093 13.1252 25.5209C13.1252 25.1341 12.9715 24.7632 12.698 24.4897C12.4245 24.2162 12.0536 24.0626 11.6668 24.0626ZM17.5002 2.91675C11.6668 2.91675 5.8335 4.91466 5.8335 8.75008V26.2501C5.8335 30.0855 11.6668 32.0834 17.5002 32.0834C23.3335 32.0834 29.1668 30.0855 29.1668 26.2501V8.75008C29.1668 4.91466 23.3335 2.91675 17.5002 2.91675ZM26.2502 26.2501C26.2502 27.2855 22.9252 29.1667 17.5002 29.1667C12.0752 29.1667 8.75016 27.2855 8.75016 26.2501V21.4813C11.4803 22.7792 14.4783 23.4138 17.5002 23.3334C20.522 23.4138 23.5201 22.7792 26.2502 21.4813V26.2501ZM26.2502 17.5001C26.2502 18.5355 22.9252 20.4167 17.5002 20.4167C12.0752 20.4167 8.75016 18.5355 8.75016 17.5001V12.7313C11.4803 14.0292 14.4783 14.6638 17.5002 14.5834C20.522 14.6638 23.5201 14.0292 26.2502 12.7313V17.5001ZM17.5002 11.6667C12.0752 11.6667 8.75016 9.7855 8.75016 8.75008C8.75016 7.71466 12.0752 5.83341 17.5002 5.83341C22.9252 5.83341 26.2502 7.71466 26.2502 8.75008C26.2502 9.7855 22.9252 11.6667 17.5002 11.6667ZM11.6668 15.3126C11.3784 15.3126 11.0964 15.3981 10.8566 15.5584C10.6168 15.7186 10.4299 15.9464 10.3195 16.2128C10.2091 16.4793 10.1802 16.7725 10.2365 17.0554C10.2928 17.3383 10.4317 17.5982 10.6356 17.8021C10.8396 18.0061 11.0994 18.145 11.3823 18.2012C11.6652 18.2575 11.9584 18.2286 12.2249 18.1182C12.4914 18.0079 12.7191 17.8209 12.8794 17.5811C13.0396 17.3413 13.1252 17.0593 13.1252 16.7709C13.1252 16.3841 12.9715 16.0132 12.698 15.7397C12.4245 15.4662 12.0536 15.3126 11.6668 15.3126Z" fill="black" fill-opacity="0.38"/>
</svg>
