<svg width="48" height="48" viewBox="0 0 48 48" fill="none" xmlns="http://www.w3.org/2000/svg">
<path d="M13.9991 27.65C14.4664 27.65 14.8583 27.492 15.175 27.1759C15.4917 26.8598 15.65 26.4681 15.65 26.0009C15.65 25.5336 15.492 25.1417 15.1759 24.825C14.8598 24.5083 14.4681 24.35 14.0009 24.35C13.5336 24.35 13.1417 24.508 12.825 24.8241C12.5083 25.1402 12.35 25.5319 12.35 25.9991C12.35 26.4664 12.508 26.8583 12.8241 27.175C13.1402 27.4917 13.5319 27.65 13.9991 27.65ZM13.9991 19.65C14.4664 19.65 14.8583 19.492 15.175 19.1759C15.4917 18.8598 15.65 18.4681 15.65 18.0009C15.65 17.5336 15.492 17.1417 15.1759 16.825C14.8598 16.5083 14.4681 16.35 14.0009 16.35C13.5336 16.35 13.1417 16.508 12.825 16.8241C12.5083 17.1402 12.35 17.5319 12.35 17.9991C12.35 18.4664 12.508 18.8583 12.8241 19.175C13.1402 19.4917 13.5319 19.65 13.9991 19.65ZM18 27.5H36V24.5H18V27.5ZM18 19.5H36V16.5H18V19.5ZM16.5 42V38H7C6.2 38 5.5 37.7 4.9 37.1C4.3 36.5 4 35.8 4 35V9C4 8.2 4.3 7.5 4.9 6.9C5.5 6.3 6.2 6 7 6H41C41.8 6 42.5 6.3 43.1 6.9C43.7 7.5 44 8.2 44 9V35C44 35.8 43.7 36.5 43.1 37.1C42.5 37.7 41.8 38 41 38H31.5V42H16.5ZM7 35H41V9H7V35Z" fill="black"/>
</svg>
