<svg width="36" height="35" viewBox="0 0 36 35" fill="none" xmlns="http://www.w3.org/2000/svg">
<path d="M3.56152 35C2.8638 35 2.25329 34.7375 1.73 34.2125C1.20671 33.6875 0.945068 33.075 0.945068 32.375V11.375C0.945068 10.675 1.20671 10.0625 1.73 9.5375C2.25329 9.0125 2.8638 8.75 3.56152 8.75H13.8965V2.625C13.8965 1.925 14.1581 1.3125 14.6814 0.7875C15.2047 0.2625 15.8152 0 16.5129 0H20.3068C21.0045 0 21.615 0.2625 22.1383 0.7875C22.6616 1.3125 22.9232 1.925 22.9232 2.625V8.75H33.2146C33.9123 8.75 34.5228 9.0125 35.0461 9.5375C35.5694 10.0625 35.8311 10.675 35.8311 11.375V32.375C35.8311 33.075 35.5694 33.6875 35.0461 34.2125C34.5228 34.7375 33.9123 35 33.2146 35H3.56152ZM3.56152 32.375H33.2146V11.375H22.9232C22.9232 12.1917 22.6543 12.8333 22.1165 13.3C21.5787 13.7667 20.9028 14 20.0888 14H16.6874C15.9024 14 15.2411 13.7667 14.7032 13.3C14.1654 12.8333 13.8965 12.1917 13.8965 11.375H3.56152V32.375ZM7.57341 27.6938H17.9956V27.0813C17.9956 26.5563 17.8648 26.0896 17.6031 25.6812C17.3415 25.2729 17.0072 24.9958 16.6002 24.85C15.6699 24.5292 14.9431 24.3177 14.4198 24.2156C13.8965 24.1135 13.3877 24.0625 12.8935 24.0625C12.3412 24.0625 11.7525 24.1281 11.1274 24.2594C10.5024 24.3906 9.79739 24.5875 9.01245 24.85C8.57638 24.9958 8.22752 25.2729 7.96587 25.6812C7.70423 26.0896 7.57341 26.5563 7.57341 27.0813V27.6938ZM22.2255 24.7625H29.6388V22.575H22.2255V24.7625ZM12.8935 22.575C13.5476 22.575 14.1036 22.3453 14.5615 21.8859C15.0194 21.4266 15.2483 20.8687 15.2483 20.2125C15.2483 19.5562 15.0194 18.9984 14.5615 18.5391C14.1036 18.0797 13.5476 17.85 12.8935 17.85C12.2394 17.85 11.6834 18.0797 11.2255 18.5391C10.7677 18.9984 10.5387 19.5562 10.5387 20.2125C10.5387 20.8687 10.7677 21.4266 11.2255 21.8859C11.6834 22.3453 12.2394 22.575 12.8935 22.575ZM22.2255 19.8188H29.6388V17.6313H22.2255V19.8188ZM16.5129 11.375H20.3068V2.625H16.5129V11.375Z" fill="black" fill-opacity="0.35"/>
</svg>
