<svg width="48" height="48" viewBox="0 0 48 48" fill="none" xmlns="http://www.w3.org/2000/svg">
<g clip-path="url(#clip0_136_63)">
<path d="M21.58 32.58C22.36 33.36 23.62 33.36 24.4 32.58L31.58 25.4C32.36 24.62 32.36 23.36 31.58 22.58L24.4 15.4C23.62 14.62 22.36 14.62 21.58 15.4C20.8 16.18 20.8 17.44 21.58 18.22L25.34 22H8C6.9 22 6 22.9 6 24C6 25.1 6.9 26 8 26H25.34L21.58 29.76C20.8 30.54 20.82 31.82 21.58 32.58ZM38 6H10C7.78 6 6 7.8 6 10V16C6 17.1 6.9 18 8 18C9.1 18 10 17.1 10 16V12C10 10.9 10.9 10 12 10H36C37.1 10 38 10.9 38 12V36C38 37.1 37.1 38 36 38H12C10.9 38 10 37.1 10 36V32C10 30.9 9.1 30 8 30C6.9 30 6 30.9 6 32V38C6 40.2 7.8 42 10 42H38C40.2 42 42 40.2 42 38V10C42 7.8 40.2 6 38 6Z" fill="black"/>
</g>
<defs>
<clipPath id="clip0_136_63">
<rect width="48" height="48" fill="white"/>
</clipPath>
</defs>
</svg>
