<svg width="40" height="34" viewBox="0 0 40 34" fill="none" xmlns="http://www.w3.org/2000/svg">
<path d="M16 15.75C13.8 15.75 12 15.05 10.6 13.65C9.2 12.25 8.5 10.45 8.5 8.25C8.5 6.05 9.2 4.25 10.6 2.85C12 1.45 13.8 0.75 16 0.75C18.2 0.75 20 1.45 21.4 2.85C22.8 4.25 23.5 6.05 23.5 8.25C23.5 10.45 22.8 12.25 21.4 13.65C20 15.05 18.2 15.75 16 15.75ZM0 31.8V27.1C0 25.9333 0.291667 24.8833 0.875 23.95C1.45833 23.0167 2.3 22.3 3.4 21.8C5.8 20.7333 8.025 19.9667 10.075 19.5C12.125 19.0333 14.1 18.8 16 18.8H17.15C16.95 19.2667 16.8 19.725 16.7 20.175C16.6 20.625 16.5167 21.1667 16.45 21.8H16C14.0667 21.8 12.175 22.0083 10.325 22.425C8.475 22.8417 6.56667 23.5333 4.6 24.5C4.06667 24.7667 3.66667 25.1417 3.4 25.625C3.13333 26.1083 3 26.6 3 27.1V28.8H16.45C16.6167 29.4 16.8167 29.9417 17.05 30.425C17.2833 30.9083 17.5667 31.3667 17.9 31.8H0ZM29.35 34L28.85 30.7C28.2833 30.5333 27.7083 30.2917 27.125 29.975C26.5417 29.6583 26.05 29.3 25.65 28.9L22.9 29.5L21.65 27.4L24 25.2C23.9333 24.9 23.9 24.4833 23.9 23.95C23.9 23.4167 23.9333 23 24 22.7L21.65 20.5L22.9 18.4L25.65 19C26.05 18.6 26.5417 18.2417 27.125 17.925C27.7083 17.6083 28.2833 17.3667 28.85 17.2L29.35 13.9H32.05L32.55 17.2C33.1167 17.3667 33.6917 17.6083 34.275 17.925C34.8583 18.2417 35.35 18.6 35.75 19L38.5 18.4L39.75 20.5L37.4 22.7C37.4667 23 37.5 23.4167 37.5 23.95C37.5 24.4833 37.4667 24.9 37.4 25.2L39.75 27.4L38.5 29.5L35.75 28.9C35.35 29.3 34.8583 29.6583 34.275 29.975C33.6917 30.2917 33.1167 30.5333 32.55 30.7L32.05 34H29.35ZM30.7 27.95C31.9 27.95 32.8667 27.5833 33.6 26.85C34.3333 26.1167 34.7 25.15 34.7 23.95C34.7 22.75 34.3333 21.7833 33.6 21.05C32.8667 20.3167 31.9 19.95 30.7 19.95C29.5 19.95 28.5333 20.3167 27.8 21.05C27.0667 21.7833 26.7 22.75 26.7 23.95C26.7 25.15 27.0667 26.1167 27.8 26.85C28.5333 27.5833 29.5 27.95 30.7 27.95ZM16 12.75C17.3 12.75 18.375 12.325 19.225 11.475C20.075 10.625 20.5 9.55 20.5 8.25C20.5 6.95 20.075 5.875 19.225 5.025C18.375 4.175 17.3 3.75 16 3.75C14.7 3.75 13.625 4.175 12.775 5.025C11.925 5.875 11.5 6.95 11.5 8.25C11.5 9.55 11.925 10.625 12.775 11.475C13.625 12.325 14.7 12.75 16 12.75Z" fill="black"/>
</svg>
