<svg width="40" height="40" viewBox="0 0 40 40" fill="none" xmlns="http://www.w3.org/2000/svg">
<path d="M15.0003 16.6667H16.667C17.109 16.6667 17.5329 16.4911 17.8455 16.1785C18.1581 15.8659 18.3337 15.442 18.3337 15C18.3337 14.558 18.1581 14.134 17.8455 13.8215C17.5329 13.5089 17.109 13.3333 16.667 13.3333H15.0003C14.5583 13.3333 14.1344 13.5089 13.8218 13.8215C13.5093 14.134 13.3337 14.558 13.3337 15C13.3337 15.442 13.5093 15.8659 13.8218 16.1785C14.1344 16.4911 14.5583 16.6667 15.0003 16.6667ZM15.0003 20C14.5583 20 14.1344 20.1756 13.8218 20.4882C13.5093 20.8007 13.3337 21.2246 13.3337 21.6667C13.3337 22.1087 13.5093 22.5326 13.8218 22.8452C14.1344 23.1577 14.5583 23.3333 15.0003 23.3333H25.0003C25.4424 23.3333 25.8663 23.1577 26.1788 22.8452C26.4914 22.5326 26.667 22.1087 26.667 21.6667C26.667 21.2246 26.4914 20.8007 26.1788 20.4882C25.8663 20.1756 25.4424 20 25.0003 20H15.0003ZM33.3337 14.9C33.3163 14.7469 33.2828 14.596 33.2337 14.45V14.3C33.1535 14.1286 33.0466 13.9711 32.917 13.8333L22.917 3.83333C22.7792 3.70369 22.6217 3.5968 22.4503 3.51667C22.4006 3.5096 22.3501 3.5096 22.3003 3.51667C22.131 3.41957 21.944 3.35724 21.7503 3.33333H11.667C10.3409 3.33333 9.06914 3.86012 8.13146 4.7978C7.19378 5.73548 6.66699 7.00725 6.66699 8.33333V31.6667C6.66699 32.9927 7.19378 34.2645 8.13146 35.2022C9.06914 36.1399 10.3409 36.6667 11.667 36.6667H28.3337C29.6597 36.6667 30.9315 36.1399 31.8692 35.2022C32.8069 34.2645 33.3337 32.9927 33.3337 31.6667V15C33.3337 15 33.3337 15 33.3337 14.9ZM23.3337 9.01666L27.6503 13.3333H25.0003C24.5583 13.3333 24.1344 13.1577 23.8218 12.8452C23.5093 12.5326 23.3337 12.1087 23.3337 11.6667V9.01666ZM30.0003 31.6667C30.0003 32.1087 29.8247 32.5326 29.5122 32.8452C29.1996 33.1577 28.7757 33.3333 28.3337 33.3333H11.667C11.225 33.3333 10.801 33.1577 10.4885 32.8452C10.1759 32.5326 10.0003 32.1087 10.0003 31.6667V8.33333C10.0003 7.8913 10.1759 7.46738 10.4885 7.15482C10.801 6.84226 11.225 6.66667 11.667 6.66667H20.0003V11.6667C20.0003 12.9927 20.5271 14.2645 21.4648 15.2022C22.4025 16.1399 23.6742 16.6667 25.0003 16.6667H30.0003V31.6667ZM25.0003 26.6667H15.0003C14.5583 26.6667 14.1344 26.8423 13.8218 27.1548C13.5093 27.4674 13.3337 27.8913 13.3337 28.3333C13.3337 28.7754 13.5093 29.1993 13.8218 29.5118C14.1344 29.8244 14.5583 30 15.0003 30H25.0003C25.4424 30 25.8663 29.8244 26.1788 29.5118C26.4914 29.1993 26.667 28.7754 26.667 28.3333C26.667 27.8913 26.4914 27.4674 26.1788 27.1548C25.8663 26.8423 25.4424 26.6667 25.0003 26.6667Z" fill="black" fill-opacity="0.38"/>
</svg>
