<svg width="35" height="35" viewBox="0 0 35 35" fill="none" xmlns="http://www.w3.org/2000/svg">
<g clip-path="url(#clip0_48_35)">
<path d="M10.2084 19.9792C9.52782 19.9792 8.94449 19.7361 8.45837 19.25C7.97226 18.7639 7.72921 18.1806 7.72921 17.5C7.72921 16.8194 7.97226 16.2361 8.45837 15.75C8.94449 15.2639 9.52782 15.0208 10.2084 15.0208C10.8889 15.0208 11.4723 15.2639 11.9584 15.75C12.4445 16.2361 12.6875 16.8194 12.6875 17.5C12.6875 18.1806 12.4445 18.7639 11.9584 19.25C11.4723 19.7361 10.8889 19.9792 10.2084 19.9792ZM10.2084 26.25C7.77782 26.25 5.71185 25.3993 4.01046 23.6979C2.30907 21.9965 1.45837 19.9306 1.45837 17.5C1.45837 15.0694 2.30907 13.0035 4.01046 11.3021C5.71185 9.60069 7.77782 8.75 10.2084 8.75C11.9584 8.75 13.4896 9.16319 14.8021 9.98958C16.1146 10.816 17.1476 12.0677 17.9011 13.7448H30.8802L35 17.8646L28.9115 23.4427L25.7032 21.1094L22.4948 23.4427L19.7605 21.2552H17.9011C17.2934 22.7135 16.3395 23.9106 15.0391 24.8464C13.7388 25.7821 12.1285 26.25 10.2084 26.25ZM10.2084 24.0625C11.6181 24.0625 12.9184 23.5946 14.1094 22.6589C15.3004 21.7231 16.066 20.526 16.4063 19.0677H20.5625L22.5313 20.7083L25.7396 18.4115L28.7292 20.6719L31.8282 17.7917L29.9688 15.9323H16.4063C16.1146 14.5712 15.3855 13.3984 14.2188 12.4141C13.0521 11.4297 11.7153 10.9375 10.2084 10.9375C8.38546 10.9375 6.83598 11.5755 5.55994 12.8516C4.2839 14.1276 3.64587 15.6771 3.64587 17.5C3.64587 19.3229 4.2839 20.8724 5.55994 22.1484C6.83598 23.4245 8.38546 24.0625 10.2084 24.0625Z" fill="black" fill-opacity="0.35"/>
</g>
<defs>
<clipPath id="clip0_48_35">
<rect width="35" height="35" fill="white"/>
</clipPath>
</defs>
</svg>
