<svg width="25" height="31" viewBox="0 0 25 31" fill="none" xmlns="http://www.w3.org/2000/svg">
<path d="M12.5002 0.916668C9.40597 0.916668 6.43851 2.14583 4.25058 4.33376C2.06266 6.52168 0.833496 9.48914 0.833496 12.5833C0.833496 20.4583 11.1147 29.3542 11.5522 29.7333C11.8164 29.9593 12.1526 30.0834 12.5002 30.0834C12.8478 30.0834 13.1839 29.9593 13.4481 29.7333C13.9585 29.3542 24.1668 20.4583 24.1668 12.5833C24.1668 9.48914 22.9377 6.52168 20.7497 4.33376C18.5618 2.14583 15.5944 0.916668 12.5002 0.916668ZM12.5002 26.6563C9.39391 23.7396 3.75016 17.4542 3.75016 12.5833C3.75016 10.2627 4.67204 8.03709 6.31298 6.39615C7.95392 4.75521 10.1795 3.83333 12.5002 3.83333C14.8208 3.83333 17.0464 4.75521 18.6873 6.39615C20.3283 8.03709 21.2502 10.2627 21.2502 12.5833C21.2502 17.4542 15.6064 23.7542 12.5002 26.6563ZM12.5002 6.75C11.3464 6.75 10.2186 7.09212 9.25934 7.7331C8.30005 8.37407 7.55238 9.28511 7.11086 10.351C6.66935 11.4169 6.55383 12.5898 6.77891 13.7214C7.00399 14.8529 7.55957 15.8923 8.37537 16.7081C9.19118 17.5239 10.2306 18.0795 11.3621 18.3046C12.4937 18.5297 13.6666 18.4141 14.7325 17.9726C15.7984 17.5311 16.7094 16.7834 17.3504 15.8242C17.9914 14.8649 18.3335 13.7371 18.3335 12.5833C18.3335 11.0362 17.7189 9.55251 16.625 8.45855C15.531 7.36458 14.0473 6.75 12.5002 6.75ZM12.5002 15.5C11.9233 15.5 11.3594 15.3289 10.8797 15.0085C10.4001 14.688 10.0263 14.2324 9.80551 13.6995C9.58476 13.1665 9.527 12.5801 9.63954 12.0143C9.75208 11.4485 10.0299 10.9288 10.4378 10.5209C10.8457 10.113 11.3654 9.83525 11.9311 9.72271C12.4969 9.61017 13.0834 9.66793 13.6163 9.88869C14.1493 10.1094 14.6048 10.4833 14.9253 10.9629C15.2458 11.4426 15.4168 12.0065 15.4168 12.5833C15.4168 13.3569 15.1095 14.0987 14.5626 14.6457C14.0156 15.1927 13.2737 15.5 12.5002 15.5Z" fill="black" fill-opacity="0.35"/>
</svg>
