<svg width="35" height="35" viewBox="0 0 35 35" fill="none" xmlns="http://www.w3.org/2000/svg">
<path d="M5.10413 29.1667C4.52079 29.1667 4.01038 28.9479 3.57288 28.5104C3.13538 28.0729 2.91663 27.5625 2.91663 26.9792V8.02084C2.91663 7.4375 3.13538 6.92709 3.57288 6.48959C4.01038 6.05209 4.52079 5.83334 5.10413 5.83334H29.8958C30.4791 5.83334 30.9895 6.05209 31.427 6.48959C31.8645 6.92709 32.0833 7.4375 32.0833 8.02084V26.9792C32.0833 27.5625 31.8645 28.0729 31.427 28.5104C30.9895 28.9479 30.4791 29.1667 29.8958 29.1667H5.10413ZM17.5 18.1563L5.10413 10.026V26.9792H29.8958V10.026L17.5 18.1563ZM17.5 15.9688L29.75 8.02084H5.28642L17.5 15.9688ZM5.10413 10.026V8.02084V26.9792V10.026Z" fill="black" fill-opacity="0.35"/>
</svg>
