<svg width="35" height="22" viewBox="0 0 35 22" fill="none" xmlns="http://www.w3.org/2000/svg">
<path d="M33.9675 9.69542C34.1688 9.04646 34.2709 8.36834 34.2709 7.67708C34.2686 5.84062 33.538 4.08003 32.2394 2.78145C30.9408 1.48288 29.1803 0.752317 27.3438 0.750001C25.308 0.750001 23.4282 1.63958 22.1332 3.13L22.0515 3.03229C20.6325 1.61188 18.6259 0.796668 16.5448 0.796668C14.4711 0.796668 12.4702 1.6075 11.0469 3.02063C10.6357 2.36116 10.0752 1.80765 9.41066 1.40479C8.70287 0.971657 7.88815 0.744869 7.05837 0.750001C6.35545 0.750001 5.66566 0.90896 5.06191 1.21083L3.01149 2.30021C0.908578 3.35167 0.0204526 5.98396 1.0967 8.13646C1.49337 8.92833 2.13795 9.56854 2.9167 9.99146V16.7917C2.9167 19.2038 4.87962 21.1667 7.2917 21.1667C8.40879 21.1667 9.41795 20.7335 10.1923 20.0423C10.9798 20.7525 12.0152 21.1667 13.125 21.1667H20.4167C21.5513 21.1667 22.5736 20.7219 23.348 20.0073C24.5088 20.7365 25.8723 21.1667 27.3438 21.1667C29.3736 21.1644 31.3197 20.357 32.755 18.9216C34.1903 17.4863 34.9977 15.5403 35 13.5104C34.997 12.1701 34.6409 10.8543 33.9675 9.69542ZM8.75004 16.7917C8.75004 17.1784 8.59639 17.5494 8.3229 17.8229C8.04941 18.0964 7.67848 18.25 7.2917 18.25C6.90493 18.25 6.534 18.0964 6.26051 17.8229C5.98701 17.5494 5.83337 17.1784 5.83337 16.7917V7.48459C5.61949 7.58866 5.38434 7.64158 5.14649 7.63917C4.5617 7.63917 3.96087 7.34313 3.70566 6.83271C3.53694 6.48345 3.51324 6.08162 3.63974 5.71495C3.76625 5.34828 4.03268 5.04655 4.38087 4.87563L6.36566 3.81979C6.57129 3.71771 6.81337 3.66667 7.05837 3.66667C7.34858 3.66667 7.6417 3.73958 7.87649 3.88396C8.30524 4.15084 8.75004 4.61896 8.75004 5.125V16.7917ZM20.4167 18.25H13.125C12.8373 18.2486 12.5563 18.1622 12.3175 18.0017C12.0786 17.8412 11.8924 17.6138 11.7823 17.3479C11.6722 17.0821 11.643 16.7896 11.6985 16.5072C11.7539 16.2248 11.8915 15.9651 12.094 15.7606L17.9273 9.92729C18.2977 9.55688 18.5019 9.06542 18.5019 8.54188C18.5019 8.01979 18.2977 7.52834 17.9273 7.15792C17.5569 6.7875 17.0509 6.60229 16.5434 6.60229C16.0359 6.60229 15.5284 6.7875 15.155 7.15938C14.9732 7.34064 14.829 7.55614 14.7309 7.79343C14.6328 8.03072 14.5826 8.2851 14.5834 8.54188C14.5834 8.92865 14.4297 9.29958 14.1562 9.57307C13.8827 9.84657 13.5118 10.0002 13.125 10.0002C12.7383 10.0002 12.3673 9.84657 12.0938 9.57307C11.8203 9.29958 11.6667 8.92865 11.6667 8.54188C11.6667 7.23813 12.1742 6.01459 13.0959 5.09438C14.0175 4.17417 15.2805 3.71333 16.5434 3.71333C17.8063 3.71333 19.0677 4.17417 19.9894 5.09583C20.9111 6.01604 21.4171 7.24104 21.4171 8.54188C21.4171 9.84417 20.9096 11.0692 19.9894 11.9894L16.6455 15.3333H20.4167C20.8035 15.3333 21.1744 15.487 21.4479 15.7605C21.7214 16.034 21.875 16.4049 21.875 16.7917C21.875 17.1784 21.7214 17.5494 21.4479 17.8229C21.1744 18.0964 20.8035 18.25 20.4167 18.25ZM27.3438 18.25C26.0872 18.2485 24.8826 17.7486 23.9941 16.8601C23.1056 15.9716 22.6057 14.767 22.6042 13.5104C22.6042 13.1236 22.7578 12.7527 23.0313 12.4792C23.3048 12.2057 23.6758 12.0521 24.0625 12.0521C24.4493 12.0521 24.8202 12.2057 25.0937 12.4792C25.3672 12.7527 25.5209 13.1236 25.5209 13.5104C25.5209 14.5152 26.339 15.3333 27.3438 15.3333C28.3486 15.3333 29.1667 14.5152 29.1667 13.5104C29.1667 12.5056 28.3486 11.6875 27.3438 11.6875C26.957 11.6875 26.5861 11.5339 26.3126 11.2604C26.0391 10.9869 25.8855 10.6159 25.8855 10.2292C25.8855 9.84239 26.0391 9.47146 26.3126 9.19797C26.5861 8.92448 26.957 8.77083 27.3438 8.77083C27.5378 8.77094 27.7284 8.71942 27.896 8.62154C28.0636 8.52367 28.2021 8.38297 28.2974 8.21388C28.3926 8.0448 28.4411 7.85342 28.438 7.65938C28.4349 7.46534 28.3802 7.27563 28.2795 7.10972C28.1788 6.94381 28.0358 6.80767 27.8652 6.71527C27.6945 6.62287 27.5023 6.57754 27.3084 6.58393C27.1144 6.59032 26.9257 6.6482 26.7614 6.75163C26.5972 6.85506 26.4635 7.00032 26.374 7.1725C26.1961 7.51596 25.889 7.77467 25.5203 7.89172C25.1517 8.00878 24.7516 7.97458 24.4082 7.79667C24.0647 7.61875 23.806 7.31169 23.6889 6.94302C23.5719 6.57436 23.6061 6.17429 23.784 5.83083C24.121 5.1777 24.6316 4.63014 25.2597 4.24834C25.8877 3.86653 26.6088 3.66527 27.3438 3.66667C28.4071 3.66783 29.4265 4.09072 30.1783 4.84257C30.9301 5.59442 31.353 6.61381 31.3542 7.67708C31.3542 8.56813 31.0523 9.38334 30.5594 10.0498C31.0387 10.49 31.4216 11.0249 31.6839 11.6205C31.9462 12.2161 32.0822 12.8596 32.0834 13.5104C32.0818 14.767 31.582 15.9716 30.6935 16.8601C29.805 17.7486 28.6003 18.2485 27.3438 18.25Z" fill="black" fill-opacity="0.38"/>
</svg>
