<svg width="35" height="35" viewBox="0 0 35 35" fill="none" xmlns="http://www.w3.org/2000/svg">
<path d="M31.6312 11.302C32.2364 11.302 32.7249 10.8135 32.7249 10.2083C32.7249 9.60306 32.2364 9.11452 31.6312 9.11452H29.5166C29.3416 7.19681 27.8104 5.65827 25.8926 5.49056V3.37598C25.8926 2.77077 25.4041 2.28223 24.7989 2.28223C24.1937 2.28223 23.7051 2.77077 23.7051 3.37598V5.46868H22.2468V3.37598C22.2468 2.77077 21.7583 2.28223 21.1531 2.28223C20.5479 2.28223 20.0593 2.77077 20.0593 3.37598V5.46868H18.601V3.37598C18.601 2.77077 18.1124 2.28223 17.5072 2.28223C16.902 2.28223 16.4135 2.77077 16.4135 3.37598V5.46868H14.9551V3.37598C14.9551 2.77077 14.4666 2.28223 13.8614 2.28223C13.2562 2.28223 12.7676 2.77077 12.7676 3.37598V5.46868H11.3093V3.37598C11.3093 2.77077 10.8208 2.28223 10.2156 2.28223C9.61035 2.28223 9.12181 2.77077 9.12181 3.37598V5.49056C8.18798 5.57378 7.31297 5.98213 6.64937 6.6444C5.98576 7.30667 5.57566 8.18085 5.49056 9.11452H3.37598C2.77077 9.11452 2.28223 9.60306 2.28223 10.2083C2.28223 10.8135 2.77077 11.302 3.37598 11.302H5.46868V12.7604H3.37598C2.77077 12.7604 2.28223 13.2489 2.28223 13.8541C2.28223 14.4593 2.77077 14.9479 3.37598 14.9479H5.46868V16.4062H3.37598C2.77077 16.4062 2.28223 16.8947 2.28223 17.4999C2.28223 18.1051 2.77077 18.5937 3.37598 18.5937H5.46868V20.052H3.37598C2.77077 20.052 2.28223 20.5406 2.28223 21.1458C2.28223 21.751 2.77077 22.2395 3.37598 22.2395H5.46868V23.6979H3.37598C2.77077 23.6979 2.28223 24.1864 2.28223 24.7916C2.28223 25.3968 2.77077 25.8854 3.37598 25.8854H5.49056C5.66556 27.8031 7.19681 29.3416 9.11452 29.5093V31.6239C9.11452 32.2291 9.60306 32.7176 10.2083 32.7176C10.8135 32.7176 11.302 32.2291 11.302 31.6239V29.5312H12.7604V31.6312C12.7604 32.2364 13.2489 32.7249 13.8541 32.7249C14.4593 32.7249 14.9479 32.2364 14.9479 31.6312V29.5312H16.4062V31.6312C16.4062 32.2364 16.8947 32.7249 17.4999 32.7249C18.1051 32.7249 18.5937 32.2364 18.5937 31.6312V29.5312H20.052V31.6312C20.052 32.2364 20.5406 32.7249 21.1458 32.7249C21.751 32.7249 22.2395 32.2364 22.2395 31.6312V29.5312H23.6979V31.6312C23.6979 32.2364 24.1864 32.7249 24.7916 32.7249C25.3968 32.7249 25.8854 32.2364 25.8854 31.6312V29.5166C27.8031 29.3416 29.3416 27.8104 29.5093 25.8926H31.6239C32.2291 25.8926 32.7176 25.4041 32.7176 24.7989C32.7176 24.1937 32.2291 23.7051 31.6239 23.7051H29.5312V22.2468H31.6312C32.2364 22.2468 32.7249 21.7583 32.7249 21.1531C32.7249 20.5479 32.2364 20.0593 31.6312 20.0593H29.5312V18.601H31.6312C32.2364 18.601 32.7249 18.1124 32.7249 17.5072C32.7249 16.902 32.2364 16.4135 31.6312 16.4135H29.5312V14.9551H31.6312C32.2364 14.9551 32.7249 14.4666 32.7249 13.8614C32.7249 13.2562 32.2364 12.7676 31.6312 12.7676H29.5312V11.3093H31.6312V11.302ZM27.3437 25.5208C27.3437 26.0042 27.1516 26.4679 26.8098 26.8098C26.4679 27.1516 26.0042 27.3437 25.5208 27.3437H9.4791C8.99563 27.3437 8.53197 27.1516 8.1901 26.8098C7.84824 26.4679 7.65619 26.0042 7.65619 25.5208V9.4791C7.65619 8.99563 7.84824 8.53197 8.1901 8.1901C8.53197 7.84824 8.99563 7.65619 9.4791 7.65619H25.5208C26.0042 7.65619 26.4679 7.84824 26.8098 8.1901C27.1516 8.53197 27.3437 8.99563 27.3437 9.4791V25.5208Z" fill="black" fill-opacity="0.35"/>
<path d="M22.5168 11.397H12.4907C11.8855 11.397 11.397 11.8855 11.397 12.4907V22.5168C11.397 23.122 11.8855 23.6105 12.4907 23.6105H22.5168C23.122 23.6105 23.6105 23.122 23.6105 22.5168V12.4907C23.6105 11.8855 23.1147 11.397 22.5168 11.397ZM21.423 21.423H13.5845V13.5845H21.423V21.423Z" fill="black" fill-opacity="0.35"/>
</svg>
