<svg width="35" height="35" viewBox="0 0 35 35" fill="none" xmlns="http://www.w3.org/2000/svg">
<path d="M1.64162 7.9292C1.35218 7.92961 1.07471 8.04477 0.870042 8.24944C0.665376 8.4541 0.550214 8.73157 0.549805 9.02101V22.6803C0.550214 22.9697 0.665376 23.2472 0.870042 23.4519C1.07471 23.6565 1.35218 23.7717 1.64162 23.7721H33.3894C33.6788 23.7717 33.9563 23.6565 34.161 23.4519C34.3657 23.2472 34.4808 22.9697 34.4812 22.6803V9.02101C34.4808 8.73157 34.3657 8.4541 34.161 8.24944C33.9563 8.04477 33.6788 7.92961 33.3894 7.9292H1.64162ZM2.73343 10.1128H32.3131V21.5885H2.73343V10.1128Z" fill="black" fill-opacity="0.38"/>
<path d="M4.9248 11.2046C4.78122 11.2044 4.63901 11.2325 4.50628 11.2872C4.37354 11.342 4.2529 11.4223 4.15123 11.5237C4.04955 11.6251 3.96885 11.7455 3.91371 11.8781C3.85858 12.0107 3.8301 12.1528 3.82989 12.2964V19.4048C3.8301 19.5484 3.85858 19.6905 3.91371 19.8231C3.96885 19.9557 4.04955 20.0761 4.15123 20.1775C4.2529 20.2789 4.37354 20.3592 4.50628 20.414C4.63901 20.4688 4.78122 20.4968 4.9248 20.4966H8.75003C9.03947 20.4962 9.31694 20.3811 9.5216 20.1764C9.72627 19.9717 9.84143 19.6943 9.84184 19.4048V12.2964C9.84143 12.007 9.72627 11.7295 9.5216 11.5248C9.31694 11.3202 9.03947 11.205 8.75003 11.2046H4.9248ZM6.01662 13.3882H7.65821V18.313H6.01662V13.3882ZM1.64162 21.5884C1.35218 21.5889 1.07471 21.704 0.870042 21.9087C0.665376 22.1133 0.550214 22.3908 0.549805 22.6803V25.9634C0.550214 26.2529 0.665376 26.5304 0.870042 26.735C1.07471 26.9397 1.35218 27.0548 1.64162 27.0553H10.9337C11.0772 27.0555 11.2195 27.0274 11.3522 26.9726C11.4849 26.9179 11.6056 26.8375 11.7072 26.7361C11.8089 26.6347 11.8896 26.5143 11.9447 26.3817C11.9999 26.2492 12.0284 26.107 12.0286 25.9634V22.6803C12.0284 22.5367 11.9999 22.3945 11.9447 22.262C11.8896 22.1294 11.8089 22.009 11.7072 21.9076C11.6056 21.8062 11.4849 21.7258 11.3522 21.6711C11.2195 21.6163 11.0772 21.5882 10.9337 21.5884C10.6442 21.5889 10.3667 21.704 10.1621 21.9087C9.95741 22.1133 9.84225 22.3908 9.84184 22.6803V24.8639H2.73343V22.6803C2.73302 22.3908 2.61786 22.1133 2.4132 21.9087C2.20853 21.704 1.93106 21.5889 1.64162 21.5884ZM14.3407 21.5884C14.0513 21.5889 13.7738 21.704 13.5692 21.9087C13.3645 22.1133 13.2493 22.3908 13.2489 22.6803V25.9634C13.2493 26.2529 13.3645 26.5304 13.5692 26.735C13.7738 26.9397 14.0513 27.0548 14.3407 27.0553H33.3894C33.6788 27.0548 33.9563 26.9397 34.161 26.735C34.3657 26.5304 34.4808 26.2529 34.4812 25.9634V22.6803C34.4808 22.3908 34.3657 22.1133 34.161 21.9087C33.9563 21.704 33.6788 21.5889 33.3894 21.5884C33.1 21.5889 32.8225 21.704 32.6178 21.9087C32.4132 22.1133 32.298 22.3908 32.2976 22.6803V24.8639H15.4171V22.6803C15.4167 22.3908 15.3015 22.1133 15.0968 21.9087C14.8922 21.704 14.6147 21.5889 14.3252 21.5884H14.3407ZM12.0177 11.2046C11.8741 11.2044 11.7319 11.2325 11.5992 11.2872C11.4665 11.342 11.3458 11.4223 11.2441 11.5237C11.1425 11.6251 11.0618 11.7455 11.0066 11.8781C10.9515 12.0107 10.923 12.1528 10.9228 12.2964V19.4048C10.923 19.5484 10.9515 19.6905 11.0066 19.8231C11.0618 19.9557 11.1425 20.0761 11.2441 20.1775C11.3458 20.2789 11.4665 20.3592 11.5992 20.414C11.7319 20.4688 11.8741 20.4968 12.0177 20.4966H15.8429C16.1324 20.4962 16.4099 20.3811 16.6145 20.1764C16.8192 19.9717 16.9344 19.6943 16.9348 19.4048V12.2964C16.9344 12.007 16.8192 11.7295 16.6145 11.5248C16.4099 11.3202 16.1324 11.205 15.8429 11.2046H12.0177ZM13.1095 13.3882H14.7511V18.313H13.1095V13.3882ZM19.0487 11.2046C18.7593 11.205 18.4818 11.3202 18.2771 11.5248C18.0725 11.7295 17.9573 12.007 17.9569 12.2964V19.4048C17.9573 19.6943 18.0725 19.9717 18.2771 20.1764C18.4818 20.3811 18.7593 20.4962 19.0487 20.4966H22.8739C23.1634 20.4962 23.4408 20.3811 23.6455 20.1764C23.8502 19.9717 23.9653 19.6943 23.9657 19.4048V12.2964C23.9653 12.007 23.8502 11.7295 23.6455 11.5248C23.4408 11.3202 23.1634 11.205 22.8739 11.2046H19.0487ZM20.1405 13.3882H21.7821V18.313H20.1405V13.3882ZM26.1726 11.2046C25.8832 11.205 25.6057 11.3202 25.401 11.5248C25.1963 11.7295 25.0812 12.007 25.0808 12.2964V19.4048C25.0812 19.6943 25.1963 19.9717 25.401 20.1764C25.6057 20.3811 25.8832 20.4962 26.1726 20.4966H29.9978C30.2873 20.4962 30.5647 20.3811 30.7694 20.1764C30.9741 19.9717 31.0892 19.6943 31.0896 19.4048V12.2964C31.0892 12.007 30.9741 11.7295 30.7694 11.5248C30.5647 11.3202 30.2873 11.205 29.9978 11.2046H26.1726ZM27.2644 13.3882H28.906V18.313H27.2644V13.3882Z" fill="black" fill-opacity="0.38"/>
</svg>
