<svg width="500" height="500" viewBox="0 0 500 500" fill="none" xmlns="http://www.w3.org/2000/svg">
<path d="M250 427.56C357.083 427.56 443.89 422.492 443.89 416.24C443.89 409.988 357.083 404.92 250 404.92C142.918 404.92 56.1104 409.988 56.1104 416.24C56.1104 422.492 142.918 427.56 250 427.56Z" fill="#F5F5F5"/>
<path d="M130.36 194.26C129.48 196.26 128.51 198.42 127.66 200.53C126.81 202.64 125.93 204.81 125.16 206.97C123.58 211.181 122.313 215.503 121.37 219.9L121.08 221.5L120.98 222.1C120.98 222.27 120.98 222.49 120.92 222.69C120.882 223.664 120.902 224.639 120.98 225.61C121.17 227.72 121.51 229.98 121.98 232.24C122.82 236.77 123.89 241.44 124.98 246.04L119.85 248.04C117.459 243.681 115.422 239.136 113.76 234.45C112.884 232.011 112.176 229.515 111.64 226.98C111.34 225.577 111.152 224.153 111.08 222.72C111.08 222.32 111.08 221.94 111.08 221.51C111.08 221.08 111.08 220.6 111.15 220.32L111.35 218.32C111.649 215.744 112.106 213.189 112.72 210.67C113.28 208.17 114 205.74 114.72 203.34C115.44 200.94 116.34 198.58 117.29 196.26C117.76 195.1 118.29 193.95 118.75 192.8C119.21 191.65 119.75 190.55 120.39 189.32L130.36 194.26Z" fill="#E4897B"/>
<path d="M124.71 244.69L128.61 248.5L120.1 252.5C120.1 252.5 118.04 248.89 119.47 245.63L124.71 244.69Z" fill="#E4897B"/>
<path d="M131.759 254.17L124.569 257.11L120.109 252.46L128.609 248.5L131.759 254.17Z" fill="#E4897B"/>
<path opacity="0.4" d="M277.41 250.07C263.261 248.481 249.9 242.733 239.017 233.553C228.135 224.372 220.218 212.171 216.269 198.491C212.319 184.812 212.514 170.269 216.829 156.701C221.144 143.132 229.384 131.148 240.509 122.262C251.634 113.376 265.144 107.988 279.33 106.78C293.517 105.571 307.744 108.595 320.211 115.471C332.679 122.346 342.829 132.764 349.377 145.406C355.925 158.049 358.578 172.35 357 186.5C355.951 195.901 353.06 205.004 348.492 213.288C343.924 221.571 337.769 228.874 330.377 234.777C322.986 240.681 314.504 245.07 305.415 247.694C296.327 250.318 286.81 251.125 277.41 250.07Z" fill="#FAFAFA"/>
<path opacity="0.4" d="M329.79 121.79L220.29 209.28C219.83 208.28 219.38 207.28 218.96 206.28C216.215 199.75 214.459 192.848 213.75 185.8L308.33 110.23C316.095 112.82 323.355 116.731 329.79 121.79Z" fill="#FAFAFA"/>
<path opacity="0.4" d="M355.06 160.12L252.11 242.37C242.33 237.272 233.854 229.99 227.34 221.09L339.75 131.27C346.996 139.587 352.234 149.458 355.06 160.12Z" fill="#FAFAFA"/>
<path d="M204.389 151L203.439 150.68C205.085 145.825 207.153 141.124 209.619 136.63L210.489 137.11C208.055 141.553 206.014 146.201 204.389 151ZM216.529 127.66L215.719 127.07C223.938 115.958 234.693 106.971 247.089 100.86L247.539 101.76C235.284 107.808 224.652 116.699 216.529 127.69V127.66ZM326.119 103.13C322.852 101.377 319.471 99.8438 315.999 98.54L316.359 97.6C319.865 98.9344 323.279 100.498 326.579 102.28L326.119 103.13Z" fill="#61A5E3"/>
<path opacity="0.3" d="M204.389 151L203.439 150.68C205.085 145.825 207.153 141.124 209.619 136.63L210.489 137.11C208.055 141.553 206.014 146.201 204.389 151ZM216.529 127.66L215.719 127.07C223.938 115.958 234.693 106.971 247.089 100.86L247.539 101.76C235.284 107.808 224.652 116.699 216.529 127.69V127.66ZM326.119 103.13C322.852 101.377 319.471 99.8438 315.999 98.54L316.359 97.6C319.865 98.9344 323.279 100.498 326.579 102.28L326.119 103.13Z" fill="black"/>
<path d="M359.87 141.74C350.611 122.535 334.316 107.63 314.364 100.115C294.412 92.5998 272.333 93.0506 252.704 101.374C233.076 109.697 217.403 125.255 208.935 144.821C200.466 164.388 199.853 186.463 207.22 206.47C200.54 208.81 193.94 211.32 187.38 213.91C177.92 217.663 168.547 221.583 159.26 225.67C149.98 229.78 140.74 233.97 131.59 238.35C127 240.5 122.47 242.77 117.9 244.97C115.523 245.992 113.369 247.469 111.56 249.32C110.582 250.345 109.72 251.475 108.99 252.69C108.1 254.127 107.426 255.687 106.99 257.32C106.238 260.263 106.563 263.378 107.908 266.101C109.252 268.825 111.527 270.978 114.32 272.17C115.872 272.821 117.508 273.245 119.18 273.43C120.592 273.59 122.018 273.59 123.43 273.43C125.997 273.118 128.477 272.307 130.73 271.04C135.26 268.75 139.82 266.54 144.32 264.19C153.32 259.6 162.32 254.81 171.21 249.95C180.1 245.09 189 240 197.68 234.78C203.68 231.15 209.74 227.44 215.68 223.56C227.087 241.567 244.983 254.495 265.662 259.666C286.34 264.836 308.216 261.854 326.755 251.335C345.294 240.816 359.076 223.569 365.245 203.166C371.413 182.762 369.496 160.768 359.89 141.74H359.87ZM314.41 237.27C302.789 243.006 289.728 245.168 276.878 243.481C264.028 241.795 251.967 236.336 242.22 227.795C232.472 219.254 225.476 208.014 222.116 195.498C218.756 182.981 219.183 169.749 223.343 157.475C227.503 145.2 235.209 134.435 245.487 126.541C255.765 118.646 268.153 113.976 281.084 113.121C294.016 112.267 306.911 115.266 318.138 121.739C329.366 128.213 338.421 137.87 344.16 149.49C347.972 157.207 350.225 165.599 350.793 174.187C351.361 182.775 350.231 191.391 347.468 199.542C344.705 207.694 340.364 215.221 334.692 221.695C329.02 228.168 322.128 233.46 314.41 237.27Z" fill="#61A5E3"/>
<path opacity="0.3" d="M359.87 141.74C350.611 122.535 334.316 107.63 314.364 100.115C294.412 92.5998 272.333 93.0506 252.704 101.374C233.076 109.697 217.403 125.255 208.935 144.821C200.466 164.388 199.853 186.463 207.22 206.47C200.54 208.81 193.94 211.32 187.38 213.91C177.92 217.663 168.547 221.583 159.26 225.67C149.98 229.78 140.74 233.97 131.59 238.35C127 240.5 122.47 242.77 117.9 244.97C115.523 245.992 113.369 247.469 111.56 249.32C110.582 250.345 109.72 251.475 108.99 252.69C108.1 254.127 107.426 255.687 106.99 257.32C106.238 260.263 106.563 263.378 107.908 266.101C109.252 268.825 111.527 270.978 114.32 272.17C115.872 272.821 117.508 273.245 119.18 273.43C120.592 273.59 122.018 273.59 123.43 273.43C125.997 273.118 128.477 272.307 130.73 271.04C135.26 268.75 139.82 266.54 144.32 264.19C153.32 259.6 162.32 254.81 171.21 249.95C180.1 245.09 189 240 197.68 234.78C203.68 231.15 209.74 227.44 215.68 223.56C227.087 241.567 244.983 254.495 265.662 259.666C286.34 264.836 308.216 261.854 326.755 251.335C345.294 240.816 359.076 223.569 365.245 203.166C371.413 182.762 369.496 160.768 359.89 141.74H359.87ZM314.41 237.27C302.789 243.006 289.728 245.168 276.878 243.481C264.028 241.795 251.967 236.336 242.22 227.795C232.472 219.254 225.476 208.014 222.116 195.498C218.756 182.981 219.183 169.749 223.343 157.475C227.503 145.2 235.209 134.435 245.487 126.541C255.765 118.646 268.153 113.976 281.084 113.121C294.016 112.267 306.911 115.266 318.138 121.739C329.366 128.213 338.421 137.87 344.16 149.49C347.972 157.207 350.225 165.599 350.793 174.187C351.361 182.775 350.231 191.391 347.468 199.542C344.705 207.694 340.364 215.221 334.692 221.695C329.02 228.168 322.128 233.46 314.41 237.27Z" fill="black"/>
<path d="M158 158.55C158 159.14 158.31 159.62 158.7 159.62C159.09 159.62 159.4 159.14 159.4 158.55C159.4 157.96 159.09 157.48 158.7 157.48C158.31 157.48 158 158 158 158.55Z" fill="#263238"/>
<path d="M158.28 159.62C158.988 161.431 159.94 163.137 161.11 164.69C160.706 164.979 160.243 165.177 159.754 165.268C159.265 165.36 158.762 165.343 158.28 165.22V159.62Z" fill="#DE5753"/>
<path d="M155.93 155.26C155.874 155.26 155.819 155.247 155.769 155.223C155.719 155.199 155.675 155.164 155.64 155.12C155.588 155.044 155.567 154.95 155.582 154.859C155.597 154.768 155.646 154.686 155.72 154.63C156.16 154.296 156.675 154.073 157.22 153.981C157.765 153.889 158.324 153.93 158.85 154.1C158.897 154.113 158.941 154.136 158.979 154.166C159.017 154.197 159.048 154.236 159.07 154.28C159.092 154.323 159.105 154.371 159.107 154.42C159.11 154.469 159.102 154.518 159.085 154.563C159.067 154.609 159.04 154.651 159.005 154.685C158.971 154.72 158.929 154.747 158.884 154.764C158.838 154.782 158.789 154.79 158.74 154.787C158.691 154.785 158.644 154.772 158.6 154.75C158.182 154.622 157.74 154.596 157.31 154.674C156.88 154.753 156.476 154.933 156.13 155.2C156.071 155.239 156.001 155.26 155.93 155.26Z" fill="#263238"/>
<path d="M137.8 163C138.8 168.37 139.9 178.22 136.14 181.81C136.14 181.81 137.61 187.26 147.6 187.26C158.6 187.26 152.84 181.81 152.84 181.81C146.84 180.37 147.01 175.93 148.05 171.75L137.8 163Z" fill="#E4897B"/>
<path d="M131.65 184.64C132.84 182.79 130.84 178.3 130.84 178.3C130.84 178.3 148.52 173.85 155.75 180.68C157.25 182.09 155.59 184.17 155.59 184.17L131.65 184.64Z" fill="#61A5E3"/>
<path opacity="0.1" d="M131.65 184.64C132.84 182.79 130.84 178.3 130.84 178.3C130.84 178.3 148.52 173.85 155.75 180.68C157.25 182.09 155.59 184.17 155.59 184.17L131.65 184.64Z" fill="black"/>
<path d="M102.4 388.67C101.47 388.67 99.9798 387.12 99.5398 386.54C99.5208 386.512 99.5107 386.479 99.5107 386.445C99.5107 386.411 99.5208 386.378 99.5398 386.35C99.5559 386.322 99.5793 386.299 99.6074 386.283C99.6356 386.267 99.6675 386.259 99.6998 386.26C99.8098 386.26 102.26 386.48 102.93 387.35C103.003 387.442 103.055 387.549 103.082 387.662C103.11 387.776 103.112 387.895 103.09 388.01C103.081 388.159 103.026 388.301 102.933 388.418C102.84 388.534 102.713 388.619 102.57 388.66L102.4 388.67ZM100.08 386.67C100.81 387.51 101.98 388.46 102.48 388.34C102.48 388.34 102.68 388.29 102.74 387.97C102.753 387.903 102.751 387.834 102.733 387.769C102.716 387.703 102.684 387.642 102.64 387.59C101.899 387.029 101.008 386.702 100.08 386.65V386.67Z" fill="#61A5E3"/>
<path d="M100.19 386.65C100.01 386.668 99.8292 386.668 99.6497 386.65C99.6181 386.648 99.5879 386.636 99.563 386.616C99.538 386.597 99.5195 386.57 99.5097 386.54C99.4956 386.512 99.4883 386.481 99.4883 386.45C99.4883 386.419 99.4956 386.388 99.5097 386.36C99.5797 386.3 101.05 384.77 102.16 384.77C102.293 384.767 102.424 384.792 102.547 384.844C102.669 384.896 102.779 384.973 102.87 385.07C102.969 385.153 103.037 385.268 103.063 385.395C103.088 385.523 103.07 385.655 103.01 385.77C102.72 386.33 101.19 386.65 100.19 386.65ZM100.06 386.3C101.06 386.3 102.51 385.99 102.75 385.55C102.75 385.55 102.82 385.42 102.66 385.26C102.601 385.197 102.53 385.147 102.451 385.114C102.371 385.081 102.286 385.066 102.2 385.07C101.38 385.258 100.635 385.686 100.06 386.3Z" fill="#61A5E3"/>
<path d="M168.389 411.37C167.631 411.365 166.875 411.295 166.129 411.16C166.092 411.153 166.059 411.133 166.035 411.104C166.011 411.075 165.999 411.038 165.999 411C165.994 410.966 165.998 410.93 166.013 410.898C166.027 410.866 166.05 410.839 166.079 410.82C166.189 410.76 168.749 409.29 169.979 409.63C170.093 409.656 170.201 409.705 170.296 409.773C170.39 409.842 170.47 409.93 170.529 410.03C170.608 410.141 170.65 410.274 170.65 410.41C170.65 410.546 170.608 410.679 170.529 410.79C170.239 411.24 169.329 411.37 168.389 411.37ZM166.699 410.9C168.059 411.1 169.919 411.09 170.259 410.61C170.309 410.55 170.349 410.44 170.259 410.23C170.183 410.106 170.061 410.016 169.919 409.98C169.139 409.78 167.589 410.44 166.699 410.9Z" fill="#61A5E3"/>
<path d="M166.17 411.17C166.137 411.179 166.103 411.179 166.07 411.17C166.042 411.152 166.021 411.126 166.008 411.096C165.996 411.066 165.993 411.032 166 411C166.068 409.959 166.467 408.967 167.14 408.17C167.276 408.053 167.436 407.966 167.608 407.916C167.781 407.866 167.962 407.854 168.14 407.88C168.62 407.88 168.76 408.17 168.79 408.36C168.92 409.19 167.17 410.78 166.28 411.18L166.17 411.17ZM167.96 408.17C167.74 408.168 167.527 408.247 167.36 408.39C166.795 409.022 166.444 409.816 166.36 410.66C167.26 410.11 168.46 408.87 168.36 408.37C168.36 408.37 168.36 408.2 168.02 408.17H167.96Z" fill="#61A5E3"/>
<path d="M158.09 410.99H165.44L166.17 393.98H158.82L158.09 410.99Z" fill="#E4897B"/>
<path d="M92.6396 381.79L98.7796 385.81L112.34 374.36L106.19 370.33L92.6396 381.79Z" fill="#E4897B"/>
<path d="M99.7898 385.43L93.4098 380.2C93.2971 380.107 93.1557 380.057 93.0098 380.057C92.8639 380.057 92.7225 380.107 92.6098 380.2L87.3498 384.33C87.2227 384.431 87.1201 384.56 87.0496 384.706C86.979 384.852 86.9424 385.013 86.9424 385.175C86.9424 385.337 86.979 385.498 87.0496 385.644C87.1201 385.79 87.2227 385.919 87.3498 386.02C89.6098 387.81 90.7998 388.57 93.6098 390.87C95.3398 392.28 99.6098 396.6 102.02 398.55C104.43 400.5 106.64 398.4 105.84 397.39C102.25 392.84 100.84 388.95 100.43 386.54C100.359 386.104 100.131 385.71 99.7898 385.43Z" fill="#263238"/>
<path d="M165.39 410.14H157.39C157.244 410.141 157.102 410.19 156.988 410.281C156.874 410.372 156.793 410.498 156.76 410.64L155.31 417.17C155.273 417.328 155.273 417.493 155.31 417.651C155.346 417.809 155.418 417.957 155.52 418.083C155.623 418.209 155.752 418.311 155.899 418.38C156.046 418.448 156.207 418.483 156.37 418.48C159.26 418.43 163.44 418.26 167.08 418.26C171.33 418.26 175.01 418.49 179.99 418.49C182.99 418.49 183.85 415.44 182.58 415.17C176.84 413.91 172.14 413.78 167.18 410.71C166.647 410.358 166.028 410.16 165.39 410.14Z" fill="#263238"/>
<path d="M121.66 184C115.29 187 111.66 207.1 111.66 207.1L127.23 213.31C129.509 207.745 131.351 202.011 132.74 196.16C134.88 186.9 128.18 180.9 121.66 184Z" fill="#263238"/>
<path d="M129.92 195.33C126.07 199.23 124.31 206.87 123.54 211.84L127.27 213.33C129.484 207.923 131.289 202.357 132.67 196.68C132.34 194.56 131.52 193.71 129.92 195.33Z" fill="#203048"/>
<path d="M164.14 183.86C164.14 183.86 171.96 192.7 164.58 247.36H125.29C125.02 241.36 128.81 211.91 122.99 183.49C127.332 182.648 131.725 182.094 136.14 181.83C141.702 181.5 147.278 181.5 152.84 181.83C156.654 182.214 160.432 182.892 164.14 183.86Z" fill="#263238"/>
<path d="M167.73 205.08L161.11 193.67C159.832 198.994 159.31 204.471 159.56 209.94C159.74 213.86 163.33 228.38 166.56 230.5C167.417 222.055 167.807 213.568 167.73 205.08Z" fill="#203048"/>
<path d="M168.649 191.67C169.649 196.53 170.649 201.51 171.719 206.39C172.789 211.27 173.899 216.17 175.189 220.9C175.519 222.07 175.829 223.27 176.189 224.39L176.46 225.25L176.589 225.68V225.63C176.519 225.54 176.439 225.53 176.499 225.63C176.91 226.079 177.436 226.407 178.02 226.58C178.965 226.932 179.938 227.203 180.929 227.39C185.657 228.139 190.444 228.451 195.229 228.32L196.179 233.76C194.839 234.19 193.59 234.5 192.27 234.81C190.95 235.12 189.65 235.38 188.32 235.58C185.568 236.038 182.778 236.226 179.99 236.14C178.44 236.098 176.898 235.897 175.389 235.54C173.471 235.12 171.669 234.284 170.109 233.09C169.091 232.268 168.251 231.247 167.639 230.09C167.479 229.79 167.34 229.45 167.21 229.16L167.029 228.69L166.66 227.69C166.149 226.42 165.73 225.17 165.27 223.92C163.58 218.92 162.169 213.87 160.929 208.83C159.689 203.79 158.619 198.76 157.729 193.59L168.649 191.67Z" fill="#E4897B"/>
<path d="M154.329 189.22C152.259 195.93 160.649 215.94 160.649 215.94L177.359 211.74C177.359 211.74 176.719 201.34 172.909 193.09C167.169 180.65 156.809 181.17 154.329 189.22Z" fill="#263238"/>
<path d="M195.09 228.32L203.41 228.11L199.41 236.77C199.41 236.77 196.02 237.22 193.24 232.65L190.31 229.15L193.68 228.48C194.143 228.382 194.616 228.329 195.09 228.32Z" fill="#E4897B"/>
<path d="M208.66 229.72L203.9 236.9L199.41 236.77L203.41 228.11L208.66 229.72Z" fill="#E4897B"/>
<path d="M166.169 393.98L165.789 402.75H158.439L158.819 393.98H166.169Z" fill="#CE6F64"/>
<path d="M106.19 370.33L112.34 374.36L105.34 380.26L99.2002 376.24L106.19 370.33Z" fill="#CE6F64"/>
<path d="M138.26 157.28C138.7 164.55 138.59 168.84 142.26 172.57C147.78 178.2 156.77 174.87 158.51 167.57C160.08 161.03 159.1 150.23 151.98 147.33C150.409 146.696 148.703 146.471 147.021 146.677C145.34 146.883 143.738 147.513 142.366 148.508C140.995 149.503 139.899 150.829 139.18 152.364C138.462 153.898 138.146 155.59 138.26 157.28Z" fill="#E4897B"/>
<path d="M129.7 156C131.51 162.63 135.77 170.27 141.28 170.76C148.12 171.36 151.21 164.29 152.11 156.99C156.21 154.18 154.06 151.09 158.17 150.7C163.45 150.2 161.76 140.54 154.81 138.99C154.81 138.99 157.14 143.34 152.25 141.14C147.6 138.93 142.433 138.034 137.31 138.55C137.31 138.55 143.55 141.67 137.45 143.06C131.35 144.45 129.53 148.21 132.34 150.48C132.34 150.49 128.51 151.64 129.7 156Z" fill="#263238"/>
<path d="M147.94 158.49C148.075 160.297 148.802 162.009 150.01 163.36C151.61 165.13 153.28 164.03 153.56 161.88C153.82 159.95 153.29 156.7 151.33 155.72C149.37 154.74 147.81 156.31 147.94 158.49Z" fill="#E4897B"/>
<path d="M150.64 247.36C150.64 247.36 157.8 299.21 152.16 319.99C143.22 352.89 109.04 380.66 109.04 380.66L97.4502 373.06C97.4502 373.06 126.56 349.61 130.12 322.06C133.32 297.33 125.29 267.42 125.29 247.35L150.64 247.36Z" fill="#61A5E3"/>
<path opacity="0.1" d="M150.64 247.36C150.64 247.36 157.8 299.21 152.16 319.99C143.22 352.89 109.04 380.66 109.04 380.66L97.4502 373.06C97.4502 373.06 126.56 349.61 130.12 322.06C133.32 297.33 125.29 267.42 125.29 247.35L150.64 247.36Z" fill="black"/>
<path d="M153.6 277C151.694 274.816 149.596 272.808 147.33 271C148.55 287.83 149.55 312.76 148.44 330.47C149.933 327.075 151.176 323.576 152.16 320C154.91 309.85 154.62 292.32 153.6 277Z" fill="#61A5E3"/>
<path opacity="0.3" d="M153.6 277C151.694 274.816 149.596 272.808 147.33 271C148.55 287.83 149.55 312.76 148.44 330.47C149.933 327.075 151.176 323.576 152.16 320C154.91 309.85 154.62 292.32 153.6 277Z" fill="black"/>
<path d="M113.71 378.07C113.76 378.07 109.22 381.07 109.22 381.07L96.5596 372.77L100.56 369.46L113.71 378.07Z" fill="#61A5E3"/>
<path opacity="0.3" d="M113.71 378.07C113.76 378.07 109.22 381.07 109.22 381.07L96.5596 372.77L100.56 369.46L113.71 378.07Z" fill="black"/>
<path d="M164.58 247.36C164.58 247.36 175.64 294.26 176.42 316.67C177.3 341.79 168.53 401.05 168.53 401.05H156.08C156.08 401.05 154.55 341.33 154 318.45C153.39 293.5 138.75 247.36 138.75 247.36H164.58Z" fill="#61A5E3"/>
<path opacity="0.1" d="M164.58 247.36C164.58 247.36 175.64 294.26 176.42 316.67C177.3 341.79 168.53 401.05 168.53 401.05H156.08C156.08 401.05 154.55 341.33 154 318.45C153.39 293.5 138.75 247.36 138.75 247.36H164.58Z" fill="black"/>
<path d="M170.92 396.1C170.98 396.1 170.22 401.26 170.22 401.26H155.08L154.67 396.65L170.92 396.1Z" fill="#61A5E3"/>
<path opacity="0.3" d="M170.92 396.1C170.98 396.1 170.22 401.26 170.22 401.26H155.08L154.67 396.65L170.92 396.1Z" fill="black"/>
<path d="M356 202.29C356.85 203.09 357.52 203.77 358.22 204.53C358.92 205.29 359.58 206.03 360.22 206.8C361.52 208.33 362.74 209.94 363.92 211.56C366.277 214.81 368.373 218.24 370.19 221.82L370.56 222.55C370.74 222.903 370.891 223.271 371.01 223.65C371.251 224.382 371.399 225.141 371.45 225.91C371.515 227.266 371.328 228.622 370.9 229.91C370.169 232.049 369.084 234.051 367.69 235.83C365.177 239.057 362.213 241.906 358.89 244.29L356.4 241.43C357.57 240.06 358.79 238.59 359.88 237.12C360.989 235.696 361.992 234.192 362.88 232.62C363.709 231.249 364.323 229.758 364.7 228.2C364.829 227.643 364.853 227.066 364.77 226.5C364.734 226.31 364.673 226.125 364.59 225.95C364.552 225.873 364.509 225.8 364.46 225.73L364.14 225.19C362.211 222.045 360.118 219.004 357.87 216.08C356.76 214.61 355.57 213.2 354.37 211.81C353.78 211.11 353.17 210.43 352.56 209.75C351.95 209.07 351.29 208.39 350.76 207.86L356 202.29Z" fill="#E4897B"/>
<path d="M357.36 240.59L349.89 239.37L353.8 245.91C353.8 245.91 358.61 245.74 359.98 242.91L357.36 240.59Z" fill="#E4897B"/>
<path d="M344.369 242.39L347.929 247.7L353.799 245.91L349.889 239.37L344.369 242.39Z" fill="#E4897B"/>
<path d="M357 411.28C356.492 411.324 355.985 411.185 355.57 410.89C355.445 410.772 355.352 410.623 355.301 410.458C355.25 410.293 355.243 410.118 355.28 409.95C355.287 409.843 355.323 409.739 355.385 409.651C355.447 409.563 355.531 409.493 355.63 409.45C356.5 409.06 358.78 410.52 359.04 410.69C359.07 410.708 359.092 410.736 359.105 410.768C359.118 410.801 359.119 410.836 359.11 410.87C359.106 410.904 359.091 410.936 359.068 410.962C359.045 410.987 359.014 411.004 358.98 411.01C358.332 411.174 357.668 411.265 357 411.28ZM356 409.73C355.927 409.719 355.853 409.719 355.78 409.73C355.736 409.75 355.699 409.783 355.672 409.824C355.645 409.864 355.631 409.911 355.63 409.96C355.603 410.072 355.606 410.188 355.638 410.298C355.669 410.409 355.728 410.509 355.81 410.59C356.19 410.93 357.17 410.98 358.48 410.72C357.729 410.224 356.885 409.887 356 409.73Z" fill="#61A5E3"/>
<path d="M359 411H358.91C358.2 410.59 356.83 409 357 408.13C357.032 407.993 357.108 407.87 357.216 407.78C357.325 407.69 357.459 407.637 357.6 407.63C357.735 407.61 357.873 407.622 358.002 407.664C358.132 407.705 358.251 407.776 358.35 407.87C359.17 408.59 359.18 410.75 359.18 410.87C359.178 410.9 359.169 410.93 359.153 410.956C359.137 410.982 359.116 411.004 359.09 411.02L359 411ZM357.72 408H357.64C357.42 408 357.37 408.12 357.35 408.21C357.25 408.72 358.1 409.94 358.81 410.51C358.827 409.671 358.586 408.847 358.12 408.15C358.06 408.094 357.989 408.052 357.911 408.026C357.834 408 357.751 407.991 357.67 408H357.72Z" fill="#61A5E3"/>
<path d="M322.92 411.28C322.281 411.341 321.642 411.178 321.11 410.82C320.99 410.714 320.897 410.58 320.84 410.43C320.782 410.281 320.762 410.119 320.78 409.96C320.786 409.863 320.817 409.769 320.87 409.687C320.922 409.604 320.994 409.537 321.08 409.49C322.01 408.97 324.99 410.49 325.33 410.68C325.361 410.7 325.386 410.729 325.402 410.762C325.418 410.796 325.424 410.833 325.42 410.87C325.414 410.905 325.397 410.937 325.372 410.963C325.347 410.988 325.315 411.004 325.28 411.01C324.503 411.175 323.713 411.265 322.92 411.28ZM321.59 409.73C321.475 409.722 321.361 409.747 321.26 409.8C321.224 409.817 321.193 409.844 321.172 409.878C321.151 409.911 321.14 409.95 321.14 409.99C321.124 410.094 321.135 410.2 321.169 410.3C321.204 410.399 321.263 410.488 321.34 410.56C321.8 410.97 323.03 411.04 324.69 410.76C323.722 410.244 322.674 409.896 321.59 409.73Z" fill="#61A5E3"/>
<path d="M325.249 411H325.169C324.279 410.6 322.509 409 322.649 408.13C322.649 407.93 322.829 407.68 323.319 407.63C323.498 407.611 323.68 407.628 323.851 407.682C324.023 407.735 324.183 407.823 324.319 407.94C325.259 408.72 325.439 410.74 325.439 410.83C325.443 410.861 325.439 410.892 325.427 410.92C325.414 410.948 325.394 410.972 325.369 410.99C325.332 411.006 325.289 411.01 325.249 411ZM323.459 408H323.349C323.029 408 323.009 408.16 322.999 408.2C322.919 408.71 324.119 409.98 324.999 410.53C324.913 409.675 324.563 408.868 323.999 408.22C323.848 408.091 323.658 408.014 323.459 408Z" fill="#61A5E3"/>
<path d="M337.07 179.3C336.78 183.82 336 193 339.47 195.54C339.47 195.54 338.84 200.17 330.65 201.25C321.65 202.42 325.76 197.34 325.76 197.34C330.53 195.52 329.92 191.89 328.62 188.57L337.07 179.3Z" fill="#E4897B"/>
<path d="M318.44 171.31C318.39 171.31 318.341 171.299 318.296 171.279C318.251 171.258 318.212 171.228 318.18 171.19C317.894 170.851 317.532 170.584 317.124 170.41C316.716 170.236 316.272 170.161 315.83 170.19C315.783 170.199 315.735 170.197 315.688 170.187C315.642 170.176 315.598 170.156 315.56 170.128C315.522 170.1 315.489 170.064 315.465 170.024C315.441 169.983 315.426 169.937 315.42 169.89C315.408 169.796 315.434 169.701 315.492 169.626C315.55 169.551 315.636 169.502 315.73 169.49C316.294 169.442 316.862 169.532 317.384 169.751C317.907 169.971 318.368 170.313 318.73 170.75C318.773 170.802 318.801 170.865 318.81 170.933C318.818 171 318.808 171.068 318.78 171.13C318.752 171.192 318.707 171.244 318.65 171.281C318.593 171.318 318.527 171.339 318.46 171.34L318.44 171.31Z" fill="#263238"/>
<path d="M316.88 175.74C316.525 177.174 315.977 178.554 315.25 179.84C315.584 180.02 315.953 180.124 316.332 180.144C316.71 180.165 317.089 180.102 317.44 179.96L316.88 175.74Z" fill="#DE5753"/>
<path d="M317.28 174.64C317.36 175.24 317.11 175.76 316.72 175.82C316.33 175.88 315.94 175.42 315.87 174.82C315.8 174.22 316.04 173.7 316.43 173.65C316.82 173.6 317.21 174 317.28 174.64Z" fill="#263238"/>
<path d="M316.609 173.66L315.119 173.43C315.119 173.43 315.999 174.46 316.609 173.66Z" fill="#263238"/>
<path d="M333.489 410.84H325.989L325.489 393.49H332.989L333.489 410.84Z" fill="#E4897B"/>
<path d="M367.54 410.84H360.04L357.63 393.49H365.13L367.54 410.84Z" fill="#E4897B"/>
<path d="M359.579 410H367.999C368.143 409.999 368.282 410.05 368.39 410.144C368.499 410.237 368.57 410.368 368.589 410.51L369.589 417.18C369.608 417.348 369.59 417.518 369.538 417.679C369.486 417.84 369.401 417.988 369.287 418.114C369.174 418.239 369.035 418.34 368.881 418.408C368.726 418.476 368.558 418.511 368.389 418.51C365.459 418.46 364.039 418.29 360.339 418.29C358.059 418.29 354.729 418.52 351.589 418.52C348.449 418.52 348.279 415.41 349.589 415.13C355.459 413.87 356.389 412.13 358.359 410.46C358.703 410.175 359.133 410.013 359.579 410Z" fill="#263238"/>
<path d="M325.74 410H334.15C334.294 409.998 334.435 410.049 334.545 410.143C334.655 410.236 334.728 410.367 334.75 410.51L335.75 417.18C335.768 417.348 335.751 417.518 335.699 417.679C335.647 417.84 335.561 417.988 335.448 418.114C335.334 418.239 335.196 418.34 335.041 418.408C334.886 418.476 334.719 418.511 334.55 418.51C331.62 418.46 330.2 418.29 326.5 418.29C324.22 418.29 319.5 418.52 316.36 418.52C313.22 418.52 313.05 415.41 314.36 415.13C320.23 413.87 322.54 412.13 324.52 410.46C324.864 410.175 325.293 410.013 325.74 410Z" fill="#263238"/>
<path d="M325.489 393.49L325.749 402.44H333.249L332.989 393.49H325.489Z" fill="#CE6F64"/>
<path d="M365.13 393.49H357.63L358.88 402.44H366.37L365.13 393.49Z" fill="#CE6F64"/>
<path d="M337.169 169.94C337.679 177.36 338.049 180.49 334.829 184.76C329.979 191.17 320.759 190.18 318.039 183.06C315.589 176.65 315.169 165.6 321.989 161.72C323.49 160.86 325.185 160.398 326.914 160.377C328.643 160.356 330.349 160.777 331.869 161.601C333.39 162.424 334.675 163.622 335.603 165.082C336.53 166.541 337.07 168.214 337.169 169.94Z" fill="#E4897B"/>
<path d="M341.489 176.83C345.649 179.15 348.739 173.43 348.739 173.43C348.739 173.43 341.279 174.24 341.949 169.8C342.829 163.91 338.609 156.75 328.029 157.67C327.439 157.72 326.879 157.79 326.329 157.88C325.222 157.355 323.969 157.219 322.775 157.495C321.58 157.771 320.514 158.442 319.749 159.4C316.749 159.65 312.699 163.23 315.449 167.96C315.642 167.416 315.941 166.917 316.329 166.49C316.559 169.26 318.979 173.66 321.999 173.95C322.649 177.74 320.129 182.13 320.999 186.09C322.289 191.8 331.919 193.09 331.919 193.09C331.587 192.377 331.463 191.584 331.563 190.804C331.662 190.024 331.979 189.287 332.479 188.68C339.019 191.68 343.329 188.75 343.329 188.75C338.869 187.09 340.219 184.13 340.219 184.13C341.759 184.814 343.504 184.874 345.087 184.298C346.671 183.721 347.969 182.554 348.709 181.04C347.228 181.11 345.758 180.75 344.476 180.003C343.195 179.256 342.158 178.154 341.489 176.83Z" fill="#263238"/>
<path d="M324.609 175.09C324.627 175.802 324.504 176.511 324.246 177.175C323.989 177.839 323.602 178.446 323.109 178.96C321.789 180.33 320.169 179.37 319.729 177.62C319.339 176.04 319.559 173.43 321.279 172.71C321.658 172.561 322.068 172.509 322.471 172.559C322.875 172.609 323.26 172.759 323.591 172.996C323.922 173.232 324.188 173.548 324.366 173.913C324.544 174.279 324.628 174.684 324.609 175.09Z" fill="#E4897B"/>
<path d="M330.84 244.22C330.84 244.22 332.74 293.58 337.26 322.56C340.9 345.98 357.07 400.7 357.07 400.7H367.29C367.29 400.7 358.86 347.85 357.01 324.7C352.33 266.11 364.48 253.53 353.01 241.33L330.84 244.22Z" fill="#263238"/>
<path d="M339.38 259.83C339.38 259.83 334.76 259.03 332.06 267.83C333.06 284.5 334.77 306.62 337.26 322.56C337.81 326.11 338.65 330.39 339.68 335.08C337.73 306.92 339.38 259.83 339.38 259.83Z" fill="#161F33"/>
<path d="M322.87 245.26C322.87 245.26 314.45 299.87 314.94 322.72C315.45 346.49 324.16 400.72 324.16 400.72H334.29C334.29 400.72 332.69 347.9 333.58 324.56C334.58 299.11 344.97 242.39 344.97 242.39L322.87 245.26Z" fill="#263238"/>
<path d="M368.769 401.18H355.179L354.119 396.62L368.669 396.72L368.769 401.18Z" fill="#61A5E3"/>
<path opacity="0.2" d="M368.769 401.18H355.179L354.119 396.62L368.669 396.72L368.769 401.18Z" fill="black"/>
<path d="M352.499 195.55C356.409 195.93 362.349 207.04 362.349 207.04L352.479 214.61C352.479 214.61 344.309 207.44 345.279 203.41C346.289 199.22 348.749 195.2 352.499 195.55Z" fill="#61A5E3"/>
<path opacity="0.1" d="M352.499 195.55C356.409 195.93 362.349 207.04 362.349 207.04L352.479 214.61C352.479 214.61 344.309 207.44 345.279 203.41C346.289 199.22 348.749 195.2 352.499 195.55Z" fill="black"/>
<path d="M349.55 200.33C348.553 200.061 347.521 199.947 346.49 199.99C345.965 201.083 345.559 202.23 345.28 203.41C344.28 207.41 352.48 214.61 352.48 214.61L353.21 214.05L349.55 200.33Z" fill="#61A5E3"/>
<path opacity="0.3" d="M349.55 200.33C348.553 200.061 347.521 199.947 346.49 199.99C345.965 201.083 345.559 202.23 345.28 203.41C344.28 207.41 352.48 214.61 352.48 214.61L353.21 214.05L349.55 200.33Z" fill="black"/>
<path d="M319.52 211C316.67 218.21 313.67 225.54 311.28 232.77C311.12 233.23 310.99 233.67 310.85 234.12L310.51 235.23C310.417 235.557 310.417 235.903 310.51 236.23C311.074 237.48 311.97 238.552 313.1 239.33C316.089 241.475 319.347 243.22 322.79 244.52L321.89 248.2C317.655 247.642 313.559 246.306 309.81 244.26C307.502 243.027 305.622 241.123 304.42 238.8C303.729 237.315 303.489 235.66 303.73 234.04C303.752 233.842 303.786 233.645 303.83 233.45L303.93 233.03L304.1 232.27C304.22 231.76 304.34 231.27 304.47 230.77C305.47 226.77 306.75 222.97 308.1 219.2C309.45 215.43 310.86 211.71 312.45 208L319.52 211Z" fill="#E4897B"/>
<path d="M313.45 200.88C313.45 200.88 310.07 202.59 322.87 245.26L353.05 241.32C350.93 229.1 349.93 221.53 352.5 195.55C348.172 195.24 343.827 195.24 339.5 195.55C334.892 195.818 330.31 196.419 325.79 197.35C320 198.64 313.45 200.88 313.45 200.88Z" fill="#61A5E3"/>
<path opacity="0.1" d="M313.45 200.88C313.45 200.88 310.07 202.59 322.87 245.26L353.05 241.32C350.93 229.1 349.93 221.53 352.5 195.55C348.172 195.24 343.827 195.24 339.5 195.55C334.892 195.818 330.31 196.419 325.79 197.35C320 198.64 313.45 200.88 313.45 200.88Z" fill="black"/>
<path d="M353.27 239.49L355 242C355.13 242.2 354.91 242.44 354.57 242.49L322.92 246.63C322.65 246.63 322.4 246.56 322.36 246.39L321.74 243.72C321.69 243.54 321.91 243.35 322.21 243.31L352.77 239.31C352.861 239.295 352.955 239.304 353.043 239.335C353.13 239.367 353.208 239.42 353.27 239.49Z" fill="#61A5E3"/>
<path opacity="0.2" d="M353.27 239.49L355 242C355.13 242.2 354.91 242.44 354.57 242.49L322.92 246.63C322.65 246.63 322.4 246.56 322.36 246.39L321.74 243.72C321.69 243.54 321.91 243.35 322.21 243.31L352.77 239.31C352.861 239.295 352.955 239.304 353.043 239.335C353.13 239.367 353.208 239.42 353.27 239.49Z" fill="black"/>
<path d="M349.61 243.44L350.43 243.33C350.59 243.33 350.7 243.21 350.68 243.11L349.84 239.65C349.808 239.591 349.757 239.545 349.695 239.519C349.633 239.494 349.564 239.49 349.5 239.51L348.68 239.61C348.51 239.61 348.4 239.73 348.43 239.84L349.27 243.29C349.29 243.4 349.45 243.46 349.61 243.44Z" fill="#263238"/>
<path d="M329.77 246L330.59 245.89C330.75 245.89 330.87 245.77 330.84 245.67L330 242.21C329.967 242.152 329.916 242.105 329.855 242.078C329.793 242.051 329.725 242.045 329.66 242.06L328.84 242.17C328.68 242.17 328.56 242.29 328.59 242.39L329.43 245.85C329.45 246 329.61 246.06 329.77 246Z" fill="#263238"/>
<path d="M314.859 215.36C315.689 219.22 316.859 224.11 318.569 230.3L318.939 214.61L314.859 215.36Z" fill="#61A5E3"/>
<path opacity="0.3" d="M314.859 215.36C315.689 219.22 316.859 224.11 318.569 230.3L318.939 214.61L314.859 215.36Z" fill="black"/>
<path d="M313.449 200.88C309.699 202.39 306.449 215.22 306.449 215.22L319.349 221.5C319.349 221.5 325.579 205.81 322.789 202.75C319.999 199.69 317.769 199.15 313.449 200.88Z" fill="#61A5E3"/>
<path opacity="0.1" d="M313.449 200.88C309.699 202.39 306.449 215.22 306.449 215.22L319.349 221.5C319.349 221.5 325.579 205.81 322.789 202.75C319.999 199.69 317.769 199.15 313.449 200.88Z" fill="black"/>
<path d="M336.019 401.18H322.429L321.369 396.62L336.499 396.72L336.019 401.18Z" fill="#61A5E3"/>
<path opacity="0.2" d="M336.019 401.18H322.429L321.369 396.62L336.499 396.72L336.019 401.18Z" fill="black"/>
<path d="M322.999 243.28L321.909 242.83C321.641 242.721 321.349 242.685 321.063 242.725C320.776 242.765 320.506 242.881 320.278 243.06C320.051 243.238 319.875 243.474 319.768 243.743C319.661 244.012 319.627 244.304 319.669 244.59L320.459 249.8C320.497 250.061 320.592 250.31 320.738 250.529C320.884 250.749 321.077 250.933 321.303 251.069C321.529 251.205 321.782 251.289 322.044 251.315C322.306 251.341 322.571 251.309 322.819 251.22C323.216 251.076 323.587 250.87 323.919 250.61C324.281 250.31 324.567 249.929 324.755 249.499C324.942 249.068 325.026 248.599 324.999 248.13L324.889 245.97C324.87 245.386 324.681 244.821 324.345 244.343C324.01 243.865 323.542 243.496 322.999 243.28Z" fill="#E4897B"/>
</svg>
