<svg width="48" height="48" viewBox="0 0 48 48" fill="none" xmlns="http://www.w3.org/2000/svg">
<path d="M33 3H15C13.8065 3 12.6619 3.47411 11.818 4.31802C10.9741 5.16193 10.5 6.30653 10.5 7.5V40.5C10.5 41.6935 10.9741 42.8381 11.818 43.682C12.6619 44.5259 13.8065 45 15 45H33C34.1935 45 35.3381 44.5259 36.182 43.682C37.0259 42.8381 37.5 41.6935 37.5 40.5V7.5C37.5 6.30653 37.0259 5.16193 36.182 4.31802C35.3381 3.47411 34.1935 3 33 3ZM15 6H33C33.3978 6 33.7794 6.15804 34.0607 6.43934C34.342 6.72064 34.5 7.10218 34.5 7.5V33H13.5V7.5C13.5 7.10218 13.658 6.72064 13.9393 6.43934C14.2206 6.15804 14.6022 6 15 6ZM33 42H15C14.6022 42 14.2206 41.842 13.9393 41.5607C13.658 41.2794 13.5 40.8978 13.5 40.5V36H34.5V40.5C34.5 40.8978 34.342 41.2794 34.0607 41.5607C33.7794 41.842 33.3978 42 33 42Z" fill="black"/>
</svg>
