<svg width="48" height="48" viewBox="0 0 48 48" fill="none" xmlns="http://www.w3.org/2000/svg">
<path d="M42 22.05V39C42 39.8 41.7 40.5 41.1 41.1C40.5 41.7 39.8 42 39 42H8.94996C8.14996 42 7.44996 41.7 6.84996 41.1C6.24996 40.5 5.94996 39.8 5.94996 39V22.05C5.01663 21.25 4.39996 20.2667 4.09996 19.1C3.79996 17.9333 3.83329 16.7667 4.19996 15.6L6.34996 8.85C6.61663 7.95 7.08329 7.25 7.74996 6.75C8.41663 6.25 9.18329 6 10.05 6H37.7C38.6333 6 39.45 6.25833 40.15 6.775C40.85 7.29167 41.3333 7.98333 41.6 8.85L43.8 15.6C44.1666 16.7667 44.1916 17.9333 43.875 19.1C43.5583 20.2667 42.9333 21.25 42 22.05ZM28.5 20.5C29.4666 20.5 30.2833 20.1833 30.95 19.55C31.6166 18.9167 31.8833 18.15 31.75 17.25L30.5 9H25.5V17.25C25.5 18.1167 25.7833 18.875 26.35 19.525C26.9166 20.175 27.6333 20.5 28.5 20.5ZM19.15 20.5C20.0833 20.5 20.875 20.1833 21.525 19.55C22.175 18.9167 22.5 18.15 22.5 17.25V9H17.5L16.25 17.25C16.1166 18.1167 16.35 18.875 16.95 19.525C17.55 20.175 18.2833 20.5 19.15 20.5ZM10.05 20.5C10.85 20.5 11.5416 20.225 12.125 19.675C12.7083 19.125 13.05 18.45 13.15 17.65L14.45 9H9.44996L7.14996 16.3C6.81663 17.3333 6.94996 18.2917 7.54996 19.175C8.14996 20.0583 8.98329 20.5 10.05 20.5ZM37.9 20.5C38.9666 20.5 39.8083 20.0667 40.425 19.2C41.0416 18.3333 41.1833 17.3667 40.85 16.3L38.55 9H33.55L34.85 17.65C34.95 18.45 35.2916 19.125 35.875 19.675C36.4583 20.225 37.1333 20.5 37.9 20.5ZM8.94996 39H39V23.45C39.0333 23.4833 38.925 23.5 38.675 23.5H37.9C37.0666 23.5 36.275 23.325 35.525 22.975C34.775 22.625 34.0333 22.0833 33.3 21.35C32.7666 22.0167 32.1 22.5417 31.3 22.925C30.5 23.3083 29.6166 23.5 28.65 23.5C27.65 23.5 26.7916 23.3583 26.075 23.075C25.3583 22.7917 24.6666 22.3167 24 21.65C23.5 22.25 22.8666 22.7083 22.1 23.025C21.3333 23.3417 20.4666 23.5 19.5 23.5C18.4666 23.5 17.55 23.3167 16.75 22.95C15.95 22.5833 15.2666 22.05 14.7 21.35C13.9 22.05 13.1166 22.5833 12.35 22.95C11.5833 23.3167 10.8166 23.5 10.05 23.5H9.37496C9.15829 23.5 9.01663 23.4833 8.94996 23.45V39Z" fill="black"/>
</svg>
