<svg width="35" height="35" viewBox="0 0 35 35" fill="none" xmlns="http://www.w3.org/2000/svg">
<g clip-path="url(#clip0_108_200)">
<path d="M33.9844 30.625C31.0191 30.625 28.072 29.8958 25.1432 28.4375C22.2144 26.9792 19.5833 25.0833 17.25 22.75C14.9167 20.4167 13.0208 17.7856 11.5625 14.8568C10.1042 11.928 9.375 8.9809 9.375 6.01562C9.375 5.54687 9.53125 5.15624 9.84374 4.84374C10.1562 4.53125 10.5469 4.375 11.0156 4.375H16.1198C16.4506 4.375 16.746 4.49045 17.0059 4.72135C17.2659 4.95226 17.4323 5.26215 17.5052 5.65104L18.4896 10.2448C18.5382 10.5851 18.5321 10.895 18.4714 11.1745C18.4106 11.454 18.283 11.691 18.0885 11.8854L14.4427 15.5677C15.8038 17.8281 17.329 19.7969 19.0182 21.474C20.7075 23.151 22.6215 24.5729 24.7604 25.7396L28.224 22.1667C28.467 21.8993 28.7465 21.7109 29.0625 21.6016C29.3785 21.4922 29.6944 21.474 30.0104 21.5469L34.349 22.4948C34.7211 22.5768 35.0268 22.7614 35.2661 23.0485C35.5054 23.3356 35.625 23.6736 35.625 24.0625V28.9844C35.625 29.4531 35.4688 29.8438 35.1563 30.1563C34.8438 30.4688 34.4531 30.625 33.9844 30.625ZM13.349 13.5625L16.3021 10.5729L15.4635 6.5625H11.5625C11.5625 7.51042 11.7083 8.54948 12 9.67969C12.2917 10.8099 12.7413 12.1042 13.349 13.5625ZM26.8021 26.7969C27.7986 27.2587 28.8802 27.6354 30.0469 27.9271C31.2135 28.2188 32.3438 28.3889 33.4375 28.4375V24.5365L29.6823 23.7708L26.8021 26.7969Z" fill="black" fill-opacity="0.35"/>
</g>
<defs>
<clipPath id="clip0_108_200">
<rect width="35" height="35" fill="white"/>
</clipPath>
</defs>
</svg>
