<svg width="35" height="35" viewBox="0 0 35 35" fill="none" xmlns="http://www.w3.org/2000/svg">
<path d="M17.5 17.4635C15.8959 17.4635 14.5834 16.9531 13.5625 15.9323C12.5417 14.9115 12.0313 13.599 12.0313 11.9948C12.0313 10.3906 12.5417 9.07813 13.5625 8.0573C14.5834 7.03646 15.8959 6.52605 17.5 6.52605C19.1042 6.52605 20.4167 7.03646 21.4375 8.0573C22.4584 9.07813 22.9688 10.3906 22.9688 11.9948C22.9688 13.599 22.4584 14.9115 21.4375 15.9323C20.4167 16.9531 19.1042 17.4635 17.5 17.4635ZM5.83337 29.1667V25.7396C5.83337 24.816 6.06428 24.026 6.52608 23.3698C6.98789 22.7135 7.58337 22.2153 8.31254 21.875C9.94101 21.1458 11.5026 20.599 12.9974 20.2344C14.4922 19.8698 15.9931 19.6875 17.5 19.6875C19.007 19.6875 20.5018 19.8759 21.9844 20.2526C23.4671 20.6293 25.0226 21.1701 26.6511 21.875C27.4046 22.2153 28.0122 22.7135 28.474 23.3698C28.9358 24.026 29.1667 24.816 29.1667 25.7396V29.1667H5.83337ZM8.02087 26.9792H26.9792V25.7396C26.9792 25.3507 26.8638 24.98 26.6329 24.6276C26.402 24.2752 26.1164 24.0139 25.7761 23.8438C24.2205 23.0903 22.7987 22.5738 21.5105 22.2943C20.2223 22.0148 18.8855 21.875 17.5 21.875C16.1146 21.875 14.7657 22.0148 13.4532 22.2943C12.1407 22.5738 10.7188 23.0903 9.18754 23.8438C8.84726 24.0139 8.56775 24.2752 8.349 24.6276C8.13025 24.98 8.02087 25.3507 8.02087 25.7396V26.9792ZM17.5 15.276C18.448 15.276 19.2318 14.9662 19.8516 14.3464C20.4714 13.7266 20.7813 12.9427 20.7813 11.9948C20.7813 11.0469 20.4714 10.263 19.8516 9.64323C19.2318 9.02344 18.448 8.71355 17.5 8.71355C16.5521 8.71355 15.7683 9.02344 15.1485 9.64323C14.5287 10.263 14.2188 11.0469 14.2188 11.9948C14.2188 12.9427 14.5287 13.7266 15.1485 14.3464C15.7683 14.9662 16.5521 15.276 17.5 15.276Z" fill="black" fill-opacity="0.35"/>
</svg>
